<?xml version="1.0" standalone="no"?>
<!DOCTYPE svg PUBLIC "-//W3C//DTD SVG 1.1//EN" "http://www.w3.org/Graphics/SVG/1.1/DTD/svg11.dtd" >
<svg xmlns="http://www.w3.org/2000/svg">
<metadata>Generated by IcoMoon</metadata>
<defs>
<font id="Seo-Icons" horiz-adv-x="1024">
<font-face units-per-em="1024" ascent="960" descent="-64" />
<missing-glyph horiz-adv-x="1024" />
<glyph unicode="&#x20;" d="" horiz-adv-x="512" />
<glyph unicode="&#xe600;" d="M962.56 898.56h-901.12c-33.925 0-61.44-27.515-61.44-61.44v-778.24c0-33.925 27.515-61.44 61.44-61.44h901.12c33.935 0 61.44 27.525 61.44 61.44v778.24c0 33.935-27.505 61.44-61.44 61.44zM808.96 857.6c22.579 0 40.96-18.371 40.96-40.96s-18.381-40.96-40.96-40.96-40.96 18.371-40.96 40.96 18.381 40.96 40.96 40.96zM696.32 857.6c22.579 0 40.96-18.371 40.96-40.96s-18.381-40.96-40.96-40.96-40.96 18.371-40.96 40.96 18.381 40.96 40.96 40.96zM334.582 58.88c14.612 84.869 88.381 149.504 177.418 149.504s162.796-64.635 177.408-149.504h-354.826zM962.56 82.217c0 19.896-16.138 35.625-36.055 35.625h-65.475c-8.53 32.799-21.699 64.389-38.646 93.061l46.438 46.541c14.080 14.080 14.080 36.946 0 51.026l-76.472 76.493c-14.080 14.080-36.905 14.1-50.975 0.020l-46.674-46.438c-28.662 16.957-60.252 30.126-93.061 38.656v65.475c0 19.886-15.688 36.045-35.615 36.045h-108.093c-19.907 0-35.604-16.138-35.604-36.045v-65.495c-32.809-8.53-64.399-21.699-93.051-38.646l-46.551 46.438c-14.080 14.080-36.956 14.080-51.026 0l-76.493-76.472c-14.080-14.080-14.090-36.905-0.010-50.985l46.438-46.643c-16.957-28.672-30.136-60.262-38.656-93.061h-65.495c-19.907 0-36.045-15.698-36.045-35.625v652.534h901.12v-652.503zM921.6 775.68c-22.579 0-40.96 18.371-40.96 40.96s18.381 40.96 40.96 40.96 40.96-18.371 40.96-40.96-18.381-40.96-40.96-40.96z" />
<glyph unicode="&#xe601;" d="M512-64c-282.317 0-512 229.683-512 512s229.683 512 512 512c282.317 0 512-229.683 512-512 0-282.317-229.683-512-512-512zM512 898.56c-248.443 0-450.56-202.117-450.56-450.56s202.117-450.56 450.56-450.56c248.443 0 450.56 202.117 450.56 450.56 0 248.443-202.117 450.56-450.56 450.56zM782.336 718.336h-540.672c-20.357 0-36.864-16.507-36.864-36.864v-466.954c0-20.337 16.507-36.864 36.864-36.864h540.672c20.357 0 36.864 16.507 36.864 36.864v466.954c0 20.367-16.497 36.864-36.864 36.864zM690.176 693.76c13.537 0 24.556-11.018 24.556-24.576s-11.018-24.576-24.556-24.576c-13.548 0-24.576 11.018-24.576 24.576 0 13.558 11.028 24.576 24.576 24.576zM622.592 693.76c13.548 0 24.576-11.018 24.576-24.576s-11.028-24.576-24.576-24.576-24.576 11.018-24.576 24.576c0 13.558 11.028 24.576 24.576 24.576zM405.545 214.518c8.765 50.934 53.033 89.713 106.455 89.713s97.679-38.779 106.455-89.713h-212.91zM782.336 228.516c0 11.94-9.687 21.381-21.637 21.381h-39.281c-5.12 19.681-13.015 38.636-23.204 55.839l27.873 27.924c8.448 8.448 8.448 22.17 0 30.618l-45.865 45.896c-8.458 8.428-22.159 8.448-30.577 0l-28.006-27.873c-17.213 10.179-36.147 18.094-55.839 23.214v39.281c0 11.93-9.4 21.617-21.371 21.617h-64.85c-11.95 0-21.361-9.677-21.361-21.617v-39.301c-19.692-5.12-38.636-13.015-55.839-23.194l-27.935 27.873c-8.448 8.448-22.18 8.448-30.618 0l-45.896-45.875c-8.448-8.448-8.458-22.139-0.010-30.587l27.863-27.965c-10.168-17.224-18.084-36.157-23.194-55.839h-39.301c-11.94 0-21.627-9.421-21.627-21.381v391.506h540.662v-391.516h0.010zM757.76 644.608c-13.537 0-24.576 11.018-24.576 24.576s11.039 24.576 24.576 24.576 24.576-11.018 24.576-24.576c0-13.558-11.039-24.576-24.576-24.576z" />
<glyph unicode="&#xe602;" d="M512 302.182c-53.422 0-97.69-38.502-106.455-89.702h212.9c-8.765 51.2-53.023 89.702-106.445 89.702zM647.168 669.184c0-13.573-11.003-24.576-24.576-24.576s-24.576 11.003-24.576 24.576c0 13.573 11.003 24.576 24.576 24.576 13.573 0 24.576-11.003 24.576-24.576zM690.176 644.608c13.537 0 24.566 11.018 24.566 24.576s-11.018 24.576-24.566 24.576c-13.548 0-24.576-11.018-24.576-24.576s11.028-24.576 24.576-24.576zM782.336 669.184c0-13.573-11.003-24.576-24.576-24.576s-24.576 11.003-24.576 24.576c0 13.573 11.003 24.576 24.576 24.576 13.573 0 24.576-11.003 24.576-24.576zM512 960c-282.767 0-512-229.233-512-512s229.233-512 512-512 512 229.233 512 512-229.233 512-512 512zM819.2 208.394c0-20.367-16.497-36.874-36.864-36.874h-540.672c-20.357 0-36.864 16.507-36.864 36.874v468.972c0 20.367 16.507 36.874 36.864 36.874h540.672c20.357 0 36.864-16.507 36.864-36.874v-468.972zM245.76 228.506c0 11.96 5.591 24.934 17.531 24.934h39.301c5.11 20.48 13.015 36.864 23.194 54.057l-27.863 27.095c-8.448 8.448-8.438 21.688 0.010 30.136l45.896 45.67c8.438 8.448 22.17 8.335 30.618-0.113l29.225-27.924c17.193 10.189 36.649 18.033 57.129 23.153v39.301c0 11.93 6.82 23.665 18.76 23.665h64.85c11.971 0 18.79-11.745 18.79-23.675v-39.291c20.48-5.12 39.926-13.015 57.129-23.204l28.652 27.873c8.438 8.448 22.456 8.428 30.915-0.010l46.039-45.896c8.448-8.448 8.53-22.17 0.082-30.618l-27.822-26.153c10.168-17.203 18.115-33.587 23.235-54.067h39.281c11.94 0 17.531-12.974 17.531-24.914v393.554h-532.48v-393.574z" />
<glyph unicode="&#xe603;" d="M644.352 4.157c-17.756 13.056-19.64 32.666-19.64 32.666l-6.646 42.537h-212.122l-6.676-42.527c0 0-1.853-19.61-19.599-32.666-17.736-13.056-31.734-24.259-17.736-26.143 13.486-1.823 140.698-0.164 150.077-0.010 9.4-0.154 136.581-1.812 150.067 0.010 13.988 1.874-0.010 13.056-17.725 26.132zM273.070 344.044c56.668 0.44 63.724 14.1 82.196 70.984 34.068 89.784 187.484-23.501 92.406-62.822-95.078-39.342-231.27-8.602-174.602-8.161zM854.129 935.731c-27.515 22.159-73.052 11.244-101.755-24.371l-290.724-413.041c-28.703-35.604-28.559-28.805-1.065-50.944 27.494-22.159 20.869-23.757 49.572 11.858l341.78 371.886c28.692 35.635 29.686 82.463 2.191 104.612zM779.377 886.292c0 0-4.26 4.946-18.422 16.271 21.238 34.683 62.986 28.324 62.986 28.324-39.598-23.368-44.564-44.595-44.564-44.595zM983.050 796.16h-127.846l-56.463-61.44h163.84v-491.52h-901.12v491.52h524.206l43.264 61.44h-587.96c-22.62 0-40.96-18.34-40.96-40.96v-593.92c0-22.62 18.34-40.96 40.96-40.96h942.080c22.62 0 40.96 18.34 40.96 40.96v593.92c0 22.62-18.34 40.96-40.96 40.96z" />
<glyph unicode="&#xe604;" d="M512-64c-282.317 0-512 229.683-512 512s229.683 512 512 512c282.317 0 512-229.683 512-512 0-282.317-229.683-512-512-512zM512 898.56c-248.443 0-450.56-202.117-450.56-450.56s202.117-450.56 450.56-450.56c248.443 0 450.56 202.117 450.56 450.56 0 248.443-202.117 450.56-450.56 450.56zM591.401 173.179c-10.65 7.844-11.776 19.599-11.776 19.599l-3.994 25.518h-127.273l-4.004-25.508c0 0-1.106-11.766-11.756-19.61-10.639-7.844-19.036-14.561-10.639-15.677 8.090-1.075 84.419-0.102 90.040 0 5.642-0.102 81.951-1.075 90.040 0 8.376 1.116-0.010 7.834-10.639 15.677zM368.64 377.108c34.007 0.246 38.236 8.448 49.316 42.588 20.439 53.873 112.486-14.1 55.439-37.704s-138.762-5.13-104.755-4.884zM717.271 732.129c-16.486 13.292-43.827 6.748-61.051-14.623l-174.438-247.828c-17.224-21.361-17.132-17.285-0.645-30.566 16.497-13.292 12.524-14.254 29.737 7.117l205.076 223.13c17.234 21.381 17.818 49.48 1.321 62.771zM672.42 702.464c0 0-2.55 2.97-11.049 9.769 12.739 20.808 37.786 16.988 37.786 16.988-23.757-14.029-26.737-26.757-26.737-26.757zM794.624 648.376h-76.698l-33.884-36.864h98.304v-294.902h-540.672v294.902h314.522l25.958 36.864h-352.778c-13.568 0-24.576-11.008-24.576-24.576v-356.352c0-13.568 11.008-24.566 24.576-24.566h565.248c13.578 0 24.576 10.998 24.576 24.566v356.352c0 13.578-10.998 24.576-24.576 24.576z" />
<glyph unicode="&#xe605;" d="M672.42 702.464c0 0 2.98 12.739 26.737 26.757 0 0-25.047 3.82-37.786-16.988 8.499-6.799 11.049-9.769 11.049-9.769zM512 960c-282.767 0-512-229.233-512-512s229.233-512 512-512 512 229.233 512 512-229.233 512-512 512zM717.271 732.129c16.497-13.292 15.903-41.39-1.311-62.771l-205.076-223.13c-17.224-21.361-13.24-20.408-29.737-7.117-16.497 13.281-16.589 9.206 0.645 30.566l174.438 247.828c17.213 21.361 44.544 27.914 61.041 14.623zM473.395 382.013c-57.047-23.613-138.762-5.161-104.755-4.905s38.236 8.458 49.316 42.588c20.439 53.873 112.486-14.1 55.439-37.683zM602.040 157.501c-8.090-1.085-84.398-0.102-90.040 0-5.632-0.102-81.951-1.085-90.040 0-8.397 1.126 0 7.854 10.639 15.677 10.65 7.844 11.756 21.821 11.756 21.821l4.004 27.72h127.273l3.994-27.73c0 0 1.126-12.872 11.776-20.705 10.629-7.844 19.026-15.657 10.639-16.783zM819.2 267.448c0-13.568-10.998-24.248-24.576-24.248h-565.248c-13.568 0-24.576 10.68-24.576 24.248v356.352c0 13.578 11.008 29 24.576 29h352.778l-25.958-40.96h-310.436v-296.96h532.48v296.96h-94.198l33.874 40.96h76.708c13.578 0 24.576-15.421 24.576-29v-356.352z" />
<glyph unicode="&#xe606;" d="M720.957 407.040l-408.637-238.991v477.972l204.319-119.491zM962.56 898.56h-901.12c-33.925 0-61.44-27.515-61.44-61.44v-778.24c0-33.925 27.515-61.44 61.44-61.44h901.12c33.935 0 61.44 27.525 61.44 61.44v778.24c0 33.935-27.505 61.44-61.44 61.44zM808.96 857.6c22.579 0 40.96-18.371 40.96-40.96s-18.381-40.96-40.96-40.96-40.96 18.371-40.96 40.96 18.381 40.96 40.96 40.96zM696.32 857.6c22.579 0 40.96-18.371 40.96-40.96s-18.381-40.96-40.96-40.96-40.96 18.371-40.96 40.96 18.381 40.96 40.96 40.96zM962.56 58.88h-901.12v675.84h901.12v-675.84zM921.6 775.68c-22.579 0-40.96 18.371-40.96 40.96s18.381 40.96 40.96 40.96 40.96-18.371 40.96-40.96-18.381-40.96-40.96-40.96z" />
<glyph unicode="&#xe607;" d="M512-64c-282.317 0-512 229.683-512 512s229.683 512 512 512c282.317 0 512-229.683 512-512 0-282.317-229.683-512-512-512zM512 898.56c-248.443 0-450.56-202.117-450.56-450.56s202.117-450.56 450.56-450.56c248.443 0 450.56 202.117 450.56 450.56 0 248.443-202.117 450.56-450.56 450.56zM637.379 423.424l-245.187-143.38v286.771l122.593-71.69zM782.336 718.336h-540.672c-20.357 0-36.864-16.507-36.864-36.864v-466.954c0-20.337 16.507-36.864 36.864-36.864h540.672c20.357 0 36.864 16.507 36.864 36.864v466.954c0 20.367-16.497 36.864-36.864 36.864zM690.176 693.76c13.537 0 24.556-11.018 24.556-24.576s-11.018-24.576-24.556-24.576c-13.548 0-24.576 11.018-24.576 24.576 0 13.558 11.028 24.576 24.576 24.576zM622.592 693.76c13.548 0 24.576-11.018 24.576-24.576s-11.028-24.576-24.576-24.576-24.576 11.018-24.576 24.576c0 13.558 11.028 24.576 24.576 24.576zM782.336 214.518h-540.672v405.514h540.672v-405.514zM757.76 644.608c-13.537 0-24.576 11.018-24.576 24.576s11.039 24.576 24.576 24.576 24.576-11.018 24.576-24.576c0-13.558-11.039-24.576-24.576-24.576z" />
<glyph unicode="&#xe608;" d="M647.168 669.184c0-13.573-11.003-24.576-24.576-24.576s-24.576 11.003-24.576 24.576c0 13.573 11.003 24.576 24.576 24.576 13.573 0 24.576-11.003 24.576-24.576zM245.76 212.48h532.48v409.6h-532.48v-409.6zM389.12 423.424v143.391l124.129-71.69 123.361-71.7-247.491-143.391v143.391zM690.176 644.608c13.537 0 24.566 11.018 24.566 24.576s-11.018 24.576-24.566 24.576c-13.548 0-24.576-11.018-24.576-24.576s11.028-24.576 24.576-24.576zM782.336 669.184c0-13.573-11.003-24.576-24.576-24.576s-24.576 11.003-24.576 24.576c0 13.573 11.003 24.576 24.576 24.576 13.573 0 24.576-11.003 24.576-24.576zM512 960c-282.767 0-512-229.233-512-512s229.233-512 512-512 512 229.233 512 512-229.233 512-512 512zM819.2 208.394c0-20.367-16.497-36.874-36.864-36.874h-540.672c-20.357 0-36.864 16.507-36.864 36.874v468.972c0 20.367 16.507 36.874 36.864 36.874h540.672c20.357 0 36.864-16.507 36.864-36.874v-468.972z" />
<glyph unicode="&#xe609;" d="M512 960c-282.317 0-512-229.683-512-512s229.683-512 512-512c282.317 0 512 229.683 512 512 0 282.317-229.683 512-512 512zM542.72-1.403v80.763h-61.44v-80.763c-223.99 15.186-403.507 194.693-418.673 418.683h80.753v61.44h-80.753c15.165 223.99 194.683 403.507 418.673 418.673v-80.753h61.44v80.753c223.99-15.165 403.497-194.683 418.683-418.673h-80.763v-61.44h80.763c-15.186-223.99-194.693-403.497-418.683-418.683zM297.359 350.505c31.693 21.043 66.877 33.659 100.905 44.902 4.895 1.597 9.769 3.758 14.633 5.376l1.004 0.625c7.199 2.519 14.008 5.018 19.579 8.079 0.256 0.614 0.625 1.659 1.065 3.277-28.017 40.888-47.063 104.131-47.063 158.29 0 45.937 14.438 80.005 41.656 100.721-11.756 5.96-25.969 8.243-41.247 8.243-40.724 0-73.728-16.261-73.728-74.67 0-38.789 14.541-86.354 36.239-113.971-0.215-2.181-0.461-4.372-0.86-6.543-1.3-5.939-3.369-12.585-8.919-15.882-6.216-3.697-13.138-6.042-19.937-8.417-28.201-9.492-57.385-17.859-82.401-34.499-13.015-8.561-21.842-25.6-26.696-40.202-5.018-15.176-7.076-30.003-6.758-50.483h76.902c4.884 10.25 10.086 11.52 15.626 15.155zM785.736 425.482c-25.037 16.62-54.221 25.262-82.422 34.755-6.799 2.376-13.732 4.874-19.937 8.571-5.56 3.297-7.639 10.025-8.919 15.954-0.563 3.144-0.922 6.339-1.075 9.513 20.439 27.976 33.997 73.626 33.997 111.063 0 58.429-33.004 74.701-73.718 74.701-15.503 0-29.839-2.376-41.718-8.509 27.003-20.746 41.318-54.702 41.318-100.454 0-52.736-17.705-113.449-44.595-154.604 0.092-0.461 0.174-0.922 0.236-1.382 0.696-3.205 1.28-4.874 1.638-5.714 5.898-3.267 12.964-5.857 20.838-8.643l11.796-3.922c34.918-11.602 71.025-25.631 103.526-47.217 5.274-3.43 10.23-3.994 14.889-14.234h77.578c0.287 20.48-1.761 35.297-6.758 50.483-4.854 14.582-13.67 31.058-26.675 39.639zM713.144 331.039c-33.382 22.139-72.284 33.802-109.865 46.438-9.093 3.185-18.299 6.564-26.593 11.5-7.424 4.403-10.179 13.363-11.899 21.279-0.748 4.198-1.229 8.479-1.464 12.718 27.259 37.284 45.343 98.15 45.343 148.060 0 77.906-44.001 99.615-98.304 99.615s-98.304-21.688-98.304-99.584c0-51.702 19.384-115.139 48.302-151.972-0.266-2.898-0.614-5.796-1.126-8.714-1.731-7.895-4.495-16.794-11.889-21.166-8.315-4.915-17.521-8.038-26.604-11.233-37.601-12.646-76.503-23.818-109.865-45.978-17.357-11.407-29.123-33.475-35.604-52.941-6.676-20.183-9.411-46.1-9.001-66.58h491.459c0.42 20.48-2.335 46.397-9.001 66.601-6.492 19.476-18.248 40.52-35.584 51.958z" />
<glyph unicode="&#xe60a;" d="M512-64c-282.317 0-512 229.683-512 512s229.683 512 512 512c282.317 0 512-229.683 512-512 0-282.317-229.683-512-512-512zM512 898.56c-248.443 0-450.56-202.117-450.56-450.56s202.117-450.56 450.56-450.56c248.443 0 450.56 202.117 450.56 450.56 0 248.443-202.117 450.56-450.56 450.56zM512 755.2c-169.39 0-307.2-137.81-307.2-307.2s137.81-307.2 307.2-307.2 307.2 137.81 307.2 307.2-137.81 307.2-307.2 307.2zM530.432 178.36v48.456h-36.864v-48.456c-134.39 9.124-242.104 116.797-251.208 251.197h48.456v36.874h-48.445c9.093 134.39 116.808 242.104 251.197 251.208v-48.456h36.864v48.445c134.4-9.093 242.084-116.808 251.208-251.197h-48.456v-36.874h48.456c-9.124-134.4-116.808-242.074-251.208-251.197zM383.212 389.499c19.016 12.616 40.12 20.204 60.549 26.941 2.939 0.963 5.857 2.263 8.776 3.215l0.604 0.379c4.321 1.495 8.407 3 11.745 4.854 0.154 0.348 0.379 0.993 0.635 1.966-16.804 24.535-28.232 62.474-28.232 94.966 0 27.556 8.663 48.005 24.996 60.426-7.055 3.574-15.585 4.946-24.75 4.946-24.433 0-44.237-9.759-44.237-44.8 0-23.265 8.724-51.814 21.75-68.383-0.133-1.311-0.276-2.621-0.522-3.922-0.778-3.564-2.017-7.547-5.345-9.533-3.727-2.212-7.885-3.625-11.96-5.048-16.916-5.693-34.427-10.711-49.439-20.695-7.813-5.13-13.107-15.36-16.015-24.115-3.011-9.103-4.25-18.002-4.055-30.28h46.141c2.918 6.144 6.042 6.902 9.359 9.083zM676.239 434.504c-15.022 9.964-32.543 15.145-49.449 20.849-4.065 1.434-8.253 2.929-11.96 5.14-3.338 1.976-4.588 6.011-5.345 9.574-0.338 1.894-0.563 3.809-0.645 5.714 12.257 16.783 20.398 44.175 20.398 66.632 0 35.062-19.804 44.82-44.227 44.82-9.288 0-17.91-1.423-25.027-5.11 16.2-12.452 24.801-32.829 24.801-60.273 0-31.642-10.619-68.065-26.757-92.764 0.051-0.266 0.102-0.563 0.143-0.84 0.42-1.925 0.768-2.908 0.983-3.42 3.553-1.946 7.782-3.523 12.524-5.181l7.076-2.345c20.941-6.973 42.598-15.38 62.106-28.334 3.144-2.068 6.103-2.406 8.888-8.55h46.551c0.184 12.278-1.065 21.176-4.055 30.28-2.908 8.755-8.202 18.647-16.005 23.808zM632.678 377.815c-20.019 13.281-43.356 20.265-65.925 27.873-5.458 1.915-10.977 3.932-15.964 6.902-4.465 2.652-6.124 8.008-7.137 12.769-0.451 2.519-0.737 5.079-0.881 7.629 16.364 22.374 27.208 58.89 27.208 88.832 0 46.746-26.399 59.771-58.982 59.771-32.584 0-58.982-13.015-58.982-59.75 0-31.017 11.633-69.089 28.979-91.177-0.164-1.741-0.369-3.492-0.676-5.243-1.034-4.731-2.693-10.056-7.137-12.698-4.987-2.939-10.506-4.823-15.964-6.738-22.559-7.578-45.896-14.295-65.925-27.566-10.414-6.851-17.469-20.091-21.361-31.775-4.004-12.124-5.642-27.658-5.396-39.956h294.902c0.236 12.298-1.403 27.853-5.396 39.956-3.901 11.694-10.936 24.32-21.361 31.171z" />
<glyph unicode="&#xe60b;" d="M781.64 468.48c-9.114 133.12-116.040 240.056-249.16 249.16v-44.36h-40.96v44.36c-133.12-9.103-240.056-116.040-249.16-249.16h44.36v-40.96h-44.36c9.103-133.12 116.040-240.046 249.16-249.16v44.36h40.96v-44.36c133.12 9.114 240.046 116.040 249.16 249.16h-44.36v40.96h44.36zM331.756 408.648c2.908 8.755 8.202 20.009 16.015 25.149 15.012 9.984 32.522 15.514 49.439 21.207 4.076 1.423 8.233 3.092 11.96 5.304 3.328 1.976 4.567 6.093 5.345 9.656 0.236 1.3 0.389 2.683 0.522 3.994-13.015 16.568-21.75 45.148-21.75 68.413 0 35.052 19.804 44.82 44.237 44.82 9.165 0 17.695-1.362 24.75-4.936-16.333-12.431-24.996-32.86-24.996-60.426 0-32.502 11.428-70.431 28.232-94.966-0.256-0.983-0.481-1.608-0.635-1.966-3.348-1.843-7.434-3.338-11.745-4.854l-0.604-0.369c-2.918-0.973-5.837-2.273-8.776-3.226-20.419-6.738-41.533-16.374-60.549-28.989-3.308-2.191-6.431-0.901-9.359-11.141h-46.141c-0.195 20.48 1.044 23.235 4.055 32.328zM512 304.64h-147.436c-0.246 10.24 1.393 28.856 5.396 40.98 3.891 11.684 10.947 25.426 21.361 32.276 20.019 13.292 43.356 20.244 65.925 27.832 5.448 1.925 10.977 3.922 15.964 6.871 4.444 2.632 6.103 8.038 7.137 12.769 0.307 1.751 0.512 3.523 0.676 5.263-17.347 22.098-28.979 60.18-28.979 91.197 0 46.735 26.399 59.75 58.982 59.75 32.584 0 58.982-13.015 58.982-59.761 0-29.942-10.854-66.458-27.208-88.832 0.143-2.55 0.43-5.11 0.881-7.629 1.034-4.762 2.693-10.127 7.137-12.769 4.966-2.97 10.496-4.987 15.954-6.902 22.559-7.588 45.896-14.582 65.925-27.873 10.414-6.861 17.459-20.511 21.361-32.205 3.983-12.114 5.632-30.73 5.376-40.97h-147.436zM649.748 376.32c-2.785 10.24-5.765 8.53-8.919 10.588-19.507 12.954-41.175 22.395-62.116 29.348l-7.076 2.867c-4.731 1.669-8.97 3.482-12.513 5.437-0.215 0.502-0.563 1.628-0.983 3.553-0.041 0.276-0.092 0.635-0.143 0.901 16.138 24.689 26.757 61.153 26.757 92.795 0 27.453-8.602 47.841-24.801 60.293 7.127 3.676 15.739 5.11 25.037 5.11 24.433 0 44.227-9.759 44.227-44.82 0-22.456-8.141-49.848-20.398-66.632 0.092-1.905 0.307-3.82 0.645-5.714 0.758-3.564 2.007-7.588 5.345-9.574 3.717-2.222 7.885-3.717 11.96-5.14 16.916-5.693 34.427-10.885 49.449-20.849 7.803-5.151 13.097-17.091 16.005-25.836 3.031-9.093 4.26-11.848 4.076-32.328h-46.551zM512 960c-282.767 0-512-229.233-512-512s229.233-512 512-512 512 229.233 512 512-229.233 512-512 512zM512 140.8c-169.39 0-307.2 137.81-307.2 307.2s137.81 307.2 307.2 307.2 307.2-137.81 307.2-307.2-137.81-307.2-307.2-307.2z" />
<glyph unicode="&#xe60c;" d="M689.777 794.522c-141.722 141.742-372.326 141.742-514.068 0-141.742-141.722-141.742-372.337 0-514.058 136.868-136.878 356.608-141.537 499.18-14.060l28.805-28.805c-7.178-18.401-3.42-40.018 11.407-54.856l152.074-152.074c19.999-19.999 52.419-19.988 72.397 0 19.999 19.968 19.999 52.388 0 72.387l-152.064 152.064c-14.838 14.817-36.495 18.575-54.856 11.397l-28.815 28.836c127.529 142.572 122.829 362.312-14.060 499.169zM219.146 323.891c-117.78 117.78-117.78 309.412 0 427.192 117.78 117.791 309.432 117.78 427.213 0s117.78-309.422 0-427.203-309.432-117.77-427.213 0.010zM402.985 521.574l-8.643 129.587c-1.628 25.252-2.437 43.377-2.437 54.385 0 14.971 3.922 26.655 11.766 35.031 7.844 8.376 18.166 12.585 30.976 12.585 15.514 0 25.876-5.366 31.109-16.097 5.233-10.732 7.854-26.204 7.854-46.397 0-11.909-0.635-23.992-1.905-36.26l-11.622-133.376c-1.26-15.872-3.973-28.047-8.12-36.526s-10.998-12.718-20.562-12.718c-9.738 0-16.497 4.106-20.285 12.308-3.799 8.212-6.492 20.705-8.131 37.478zM433.019 343.562c-10.998 0-20.603 3.564-28.805 10.701-8.212 7.107-12.308 17.080-12.308 29.88 0 11.182 3.922 20.695 11.766 28.539 7.854 7.864 17.449 11.756 28.805 11.756s21.064-3.922 29.092-11.756c8.018-7.844 12.042-17.357 12.042-28.539 0-12.616-4.055-22.538-12.175-29.757-8.11-7.229-17.592-10.824-28.416-10.824zM248.443 125.43h368.64v-40.96h-368.64v40.96zM330.353 36.116h204.8v-40.96h-204.8v40.96z" />
<glyph unicode="&#xe60d;" d="M512-64c-282.317 0-512 229.683-512 512s229.683 512 512 512c282.317 0 512-229.683 512-512 0-282.317-229.683-512-512-512zM512 898.56c-248.443 0-450.56-202.117-450.56-450.56s202.117-450.56 450.56-450.56c248.443 0 450.56 202.117 450.56 450.56 0 248.443-202.117 450.56-450.56 450.56zM632.596 683.080c-96.143 96.164-252.59 96.164-348.733 0-96.164-96.143-96.164-252.59 0-348.744 92.846-92.846 241.92-96.020 338.637-9.544l19.548-19.538c-4.895-12.483-2.335-27.136 7.741-37.202l103.148-103.178c13.578-13.558 35.574-13.558 49.121 0 13.558 13.558 13.558 35.564 0 49.121l-103.137 103.168c-10.056 10.045-24.76 12.595-37.222 7.741l-19.548 19.558c86.508 96.707 83.333 245.78-9.554 338.616zM313.334 363.796c-79.903 79.913-79.903 209.92 0 289.823s209.92 79.903 289.823 0 79.903-209.91 0-289.823c-79.892-79.892-209.92-79.872-289.823 0zM438.047 497.92l-5.868 87.91c-1.096 17.132-1.649 29.43-1.649 36.895 0 10.158 2.662 18.094 7.977 23.767 5.325 5.683 12.329 8.54 21.012 8.54 10.527 0 17.551-3.645 21.105-10.916 3.553-7.281 5.335-17.777 5.335-31.478 0-8.079-0.43-16.282-1.29-24.596l-7.885-90.481c-0.85-10.772-2.703-19.026-5.509-24.781-2.816-5.755-7.465-8.632-13.947-8.632-6.605 0-11.192 2.785-13.763 8.346-2.58 5.581-4.403 14.049-5.519 25.426zM458.424 377.16c-7.465 0-13.978 2.396-19.538 7.26-5.571 4.823-8.346 11.581-8.346 20.265 0 7.578 2.662 14.039 7.977 19.374 5.335 5.335 11.837 7.967 19.548 7.967 7.7 0 14.295-2.662 19.732-7.967 5.437-5.335 8.172-11.766 8.172-19.374 0-8.561-2.755-15.299-8.264-20.193s-11.94-7.332-19.282-7.332zM333.22 229.181h250.071v-27.791h-250.071v27.791zM388.782 168.591h138.936v-27.791h-138.936v27.791z" />
<glyph unicode="&#xe60e;" d="M603.156 653.619c-79.913 79.903-209.92 79.903-289.823 0s-79.903-209.91 0-289.812 209.92-79.913 289.823 0c79.903 79.903 79.903 209.91 0 289.812zM477.706 384.502c-5.509-4.905-11.94-7.342-19.282-7.342-7.465 0-13.978 2.406-19.538 7.26-5.571 4.823-8.346 11.581-8.346 20.265 0 7.578 2.662 14.039 7.977 19.364 5.335 5.335 11.837 7.977 19.548 7.977 7.7 0 14.295-2.662 19.732-7.977 5.437-5.325 8.172-11.776 8.172-19.364 0-8.561-2.755-15.299-8.264-20.183zM484.669 588.032l-7.885-90.481c-0.85-10.772-2.703-19.026-5.509-24.781-2.816-5.755-7.465-8.632-13.947-8.632-6.605 0-11.192 2.785-13.763 8.346-2.57 5.581-4.403 14.049-5.519 25.426l-5.868 87.91c-1.096 17.132-1.649 29.43-1.649 36.895 0 10.158 2.662 18.094 7.977 23.767 5.325 5.683 12.329 8.54 21.012 8.54 10.527 0 17.551-3.645 21.105-10.916 3.553-7.281 5.335-17.777 5.335-31.478 0.010-8.079-0.42-16.282-1.29-24.596zM512 960c-282.767 0-512-229.233-512-512s229.233-512 512-512 512 229.233 512 512-229.233 512-512 512zM532.48 140.8h-143.36v30.72h143.36v-30.72zM583.68 202.24h-245.76v30.72h245.76v-30.72zM802.068 164.895c-13.548-13.558-35.543-13.558-49.111 0l-103.158 103.168c-10.066 10.056-12.616 24.73-7.741 37.212l-19.548 19.538c-96.717-86.477-245.791-83.323-338.637 9.544-96.164 96.143-96.164 252.59 0 348.733 96.154 96.164 252.6 96.164 348.744 0 92.856-92.836 96.051-241.91 9.544-338.616l19.548-19.569c12.462 4.874 27.146 2.324 37.222-7.731l103.148-103.158c13.558-13.578 13.558-35.574-0.010-49.121z" />
<glyph unicode="&#xe60f;" d="M735.068 671.068c7.895-7.875 20.654-7.875 28.508 0l152.105 152.105c7.875 7.885 7.875 20.654 0 28.518-7.875 7.875-20.675 7.875-28.508 0l-152.105-152.105c-7.864-7.875-7.864-20.634 0-28.518zM622.981 574.464c-9.124 9.103-18.483 15.534-28.078 19.261-9.615 3.738-18.883 4.577-27.761 2.55s-16.855-6.584-23.921-13.65c-5.038-5.038-8.745-10.629-11.121-16.804-2.376-6.164-3.297-12.605-2.765-19.302 0.532-6.697 2.724-13.752 6.584-21.166 3.84-7.404 9.277-14.623 16.302-21.637 7.055-7.066 14.336-12.575 21.842-16.507 7.485-3.932 14.735-6.154 21.78-6.656 7.004-0.512 13.558 0.41 19.62 2.765 6.103 2.345 11.653 6.031 16.681 11.080 6.461 6.441 10.772 13.988 12.943 22.61 2.171 8.632 1.495 17.9-2.038 27.832-3.564 9.892-10.23 19.773-20.070 29.624zM878.858 700.785l-28.518 28.518-35.789-35.809c4.966-23.634-1.7-49.224-20.050-67.574-28.877-28.877-75.704-28.877-104.581 0-28.877 28.867-28.877 75.694 0 104.571 18.35 18.35 43.95 25.016 67.584 20.050l35.82 35.809-28.518 28.518c-19.681 19.681-222.74 19.681-242.422 0l-405.207-405.207c-19.692-19.692-19.692-51.62 0-71.301l285.194-285.204c19.681-19.681 51.61-19.681 71.301 0l405.207 405.207c19.671 19.692 19.671 222.73-0.020 242.422zM431.892 264.223c-4.076-10.854-11.233-21.412-21.473-31.652-12.268-12.268-24.73-20.081-37.335-23.409-8.991-2.324-18.043-2.458-27.146-0.42-9.103 2.028-16.292 5.683-21.545 10.936-3.052 3.052-4.618 6.717-4.669 11.039-0.061 4.28 1.546 8.079 4.833 11.356 2.652 2.662 5.755 4.055 9.298 4.198 3.533 0.164 7.629-0.799 12.257-2.836 5.55-2.365 10.557-3.963 15.053-4.803 4.506-0.819 9.288-0.42 14.346 1.188 5.069 1.628 10.312 5.151 15.739 10.557 7.465 7.465 11.796 15.268 12.995 23.409 1.188 8.141-0.829 14.817-6.031 20.040-4.127 4.116-8.735 6.195-13.834 6.277-5.1 0.041-10.312-1.239-15.667-3.86-5.335-2.652-12.114-6.543-20.316-11.684-11.028-6.84-20.961-11.878-29.778-15.124-8.837-3.205-17.428-4.178-25.795-2.877-8.376 1.3-16.169 5.54-23.347 12.718-6.84 6.84-11.059 14.797-12.636 23.859-1.577 9.042-0.276 18.545 3.942 28.457 4.219 9.943 11.090 19.661 20.654 29.225 7.639 7.639 15.186 13.302 22.661 16.978 7.465 3.656 14.602 5.765 21.422 6.318 6.82 0.522 12.8-0.102 17.94-1.853 5.14-1.761 9.37-4.26 12.646-7.547 2.99-2.98 4.639-6.758 4.915-11.295 0.276-4.506-1.157-8.346-4.321-11.551-2.888-2.867-5.796-4.342-8.735-4.403s-6.943 0.666-11.971 2.202c-6.963 2.437-13.343 3.379-19.139 2.857-5.796-0.553-12.206-4.321-19.22-11.315-6.513-6.523-10.332-13.189-11.448-20.029-1.137-6.851 0.297-12.278 4.311-16.292 2.499-2.499 5.325-3.963 8.499-4.424 3.174-0.461 6.595-0.154 10.26 0.942 3.666 1.075 7.096 2.458 10.26 4.157 3.174 1.679 8.264 4.618 15.278 8.806 8.663 5.366 16.804 9.923 24.463 13.619 7.68 3.707 14.909 6.154 21.729 7.291 6.81 1.157 13.496 0.696 20.060-1.403 6.574-2.079 12.984-6.277 19.261-12.564 7.526-7.516 12.349-16.22 14.479-26.102 2.14-9.769 1.157-20.111-2.898-30.986zM562.985 389.376l-68.465-68.485c-5.499-5.478-10.66-8.212-15.483-8.182-4.844 0.020-9.984 2.765-15.411 8.182l-93.501 93.501c-3.625 3.635-6.042 7.117-7.26 10.476-1.208 3.359-1.208 6.717 0.041 10.056s3.645 6.779 7.219 10.342l66.529 66.529c4.014 4.014 7.895 6.113 11.622 6.287 3.727 0.174 7.045-1.188 9.933-4.076 2.939-2.939 4.311-6.277 4.157-10.015-0.174-3.738-2.263-7.608-6.287-11.622l-56.771-56.771 30.546-30.536 52.265 52.265c3.85 3.84 7.588 5.847 11.203 6.021 3.625 0.174 6.851-1.157 9.677-3.983 2.826-2.826 4.198-6.062 4.116-9.718-0.082-3.645-2.079-7.434-5.98-11.325l-52.275-52.265 35.389-35.379 58.706 58.716c3.963 3.953 7.875 6.021 11.725 6.185 3.84 0.174 7.301-1.27 10.363-4.332 2.939-2.939 4.321-6.328 4.157-10.168-0.205-3.82-2.253-7.731-6.216-11.704zM673.792 505.129c-4.506-10.629-11.663-20.838-21.453-30.628-9.728-9.738-20.019-16.865-30.863-21.422-10.834-4.557-21.668-6.554-32.543-5.98-10.875 0.563-21.617 3.543-32.276 8.94-10.66 5.407-20.675 12.78-30.003 22.118-9.564 9.564-16.957 19.702-22.18 30.413-5.243 10.711-8.049 21.484-8.448 32.287-0.399 10.803 1.659 21.422 6.154 31.867 4.506 10.435 11.5 20.398 20.992 29.901 12.902 12.892 26.604 21.35 41.083 25.375s28.918 3.584 43.305-1.321c14.387-4.895 28.119-13.844 41.134-26.86 9.605-9.615 17.060-19.651 22.303-30.126 5.274-10.455 8.192-21.176 8.745-32.164 0.584-10.967-1.423-21.77-5.949-32.399z" />
<glyph unicode="&#xe610;" d="M512-64c-282.317 0-512 229.683-512 512s229.683 512 512 512c282.317 0 512-229.683 512-512 0-282.317-229.683-512-512-512zM512 898.56c-248.443 0-450.56-202.117-450.56-450.56s202.117-450.56 450.56-450.56c248.443 0 450.56 202.117 450.56 450.56 0 248.443-202.117 450.56-450.56 450.56zM679.301 615.301c5.919-5.908 15.503-5.908 21.402 0l114.084 114.074c5.898 5.908 5.898 15.493 0 21.391-5.898 5.908-15.503 5.908-21.381 0l-114.104-114.074c-5.898-5.908-5.898-15.473 0-21.391zM595.241 542.853c-6.84 6.83-13.865 11.643-21.064 14.449-7.219 2.806-14.162 3.43-20.818 1.915-6.656-1.516-12.636-4.936-17.94-10.24-3.779-3.779-6.564-7.977-8.335-12.605-1.792-4.628-2.478-9.452-2.058-14.479 0.379-5.018 2.038-10.312 4.915-15.872 2.877-5.55 6.963-10.967 12.216-16.23 5.304-5.304 10.762-9.431 16.394-12.38 5.612-2.949 11.049-4.618 16.333-4.987 5.263-0.389 10.168 0.307 14.725 2.068 4.567 1.761 8.735 4.526 12.513 8.315 4.844 4.833 8.069 10.496 9.697 16.957 1.628 6.472 1.116 13.425-1.516 20.879-2.683 7.404-7.68 14.817-15.063 22.211zM787.149 637.594l-21.391 21.391-26.849-26.86c3.727-17.725-1.27-36.915-15.032-50.678-21.658-21.658-56.781-21.658-78.438 0-21.658 21.647-21.658 56.771 0 78.428 13.763 13.763 32.963 18.76 50.678 15.032l26.86 26.86-21.381 21.391c-14.756 14.756-167.045 14.756-181.821 0l-303.903-303.923c-14.766-14.756-14.766-38.707 0-53.484l213.903-213.883c14.756-14.746 38.707-14.746 53.473 0l303.913 303.903c14.766 14.766 14.766 167.045-0.010 181.821zM451.922 310.159c-3.062-8.131-8.428-16.036-16.108-23.716-9.206-9.216-18.555-15.073-27.996-17.572-6.748-1.741-13.537-1.853-20.357-0.307-6.83 1.516-12.216 4.26-16.159 8.202-2.294 2.304-3.461 5.038-3.502 8.294-0.051 3.205 1.157 6.072 3.625 8.52 1.987 1.987 4.311 3.052 6.973 3.154 2.652 0.123 5.724-0.604 9.185-2.12 4.168-1.782 7.916-2.98 11.295-3.615s6.963-0.307 10.752 0.891c3.809 1.219 7.741 3.86 11.807 7.916 5.601 5.601 8.847 11.438 9.748 17.562 0.881 6.103-0.625 11.11-4.526 15.032-3.092 3.092-6.554 4.649-10.373 4.71-3.83 0.031-7.731-0.932-11.756-2.898-4.004-1.976-9.083-4.905-15.237-8.755-8.274-5.12-15.718-8.899-22.333-11.315-6.625-2.396-13.066-3.144-19.343-2.171-6.287 0.993-12.134 4.157-17.51 9.554-5.13 5.12-8.294 11.1-9.472 17.9-1.178 6.779-0.205 13.885 2.959 21.34 3.164 7.465 8.315 14.735 15.493 21.924 5.734 5.745 11.387 9.984 16.998 12.718 5.601 2.765 10.957 4.342 16.067 4.741 5.12 0.399 9.605-0.061 13.455-1.382 3.85-1.321 7.025-3.205 9.482-5.663 2.243-2.243 3.482-5.079 3.686-8.458 0.215-3.4-0.86-6.277-3.236-8.684-2.171-2.15-4.342-3.236-6.554-3.297-2.202-0.041-5.202 0.522-8.98 1.659-5.222 1.823-10.015 2.54-14.356 2.14s-9.155-3.236-14.418-8.479c-4.884-4.905-7.741-9.902-8.581-15.022-0.85-5.151 0.225-9.216 3.236-12.216 1.874-1.894 3.994-2.98 6.38-3.318 2.376-0.338 4.936-0.123 7.69 0.696s5.325 1.843 7.69 3.123c2.376 1.26 6.195 3.471 11.459 6.615 6.502 4.024 12.605 7.444 18.35 10.22 5.765 2.765 11.182 4.598 16.292 5.458 5.11 0.87 10.127 0.522 15.043-1.065 4.936-1.546 9.738-4.7 14.449-9.421 5.642-5.642 9.267-12.165 10.865-19.579 1.587-7.393 0.86-15.155-2.181-23.316zM550.236 404.029l-51.343-51.374c-4.127-4.096-7.997-6.154-11.612-6.134-3.625 0.010-7.485 2.068-11.551 6.134l-70.124 70.144c-2.724 2.744-4.526 5.335-5.448 7.864-0.911 2.519-0.911 5.038 0.031 7.547 0.932 2.509 2.734 5.089 5.417 7.762l49.9 49.9c3.011 3.011 5.919 4.588 8.714 4.721 2.796 0.123 5.284-0.891 7.455-3.062 2.202-2.202 3.236-4.71 3.123-7.506-0.133-2.806-1.7-5.704-4.71-8.724l-42.578-42.578 22.907-22.897 39.199 39.199c2.888 2.877 5.693 4.383 8.397 4.516 2.724 0.133 5.14-0.86 7.26-2.99 2.12-2.13 3.144-4.547 3.082-7.291-0.061-2.734-1.556-5.571-4.485-8.499l-39.209-39.199 26.542-26.542 44.032 44.042c2.959 2.97 5.898 4.506 8.776 4.649 2.877 0.123 5.478-0.963 7.782-3.236 2.202-2.222 3.226-4.762 3.123-7.639-0.164-2.898-1.72-5.827-4.68-8.806zM633.344 490.844c-3.379-7.967-8.745-15.626-16.077-22.968-7.301-7.301-15.022-12.646-23.142-16.067-8.12-3.41-16.261-4.915-24.402-4.485-8.172 0.43-16.22 2.662-24.218 6.707-7.987 4.055-15.514 9.585-22.487 16.589-7.168 7.178-12.718 14.776-16.64 22.815-3.932 8.038-6.042 16.118-6.339 24.218-0.297 8.11 1.249 16.067 4.618 23.9 3.379 7.823 8.632 15.299 15.749 22.426 9.656 9.667 19.937 16.005 30.812 19.026s21.688 2.693 32.481-0.993c10.793-3.666 21.094-10.383 30.853-20.142 7.199-7.209 12.8-14.735 16.722-22.6 3.963-7.844 6.154-15.882 6.574-24.125 0.389-8.223-1.106-16.333-4.506-24.3z" />
<glyph unicode="&#xe611;" d="M544.010 423.7c-2.888-0.123-5.816-1.679-8.786-4.639l-44.032-44.042-26.542 26.542 39.209 39.199c2.929 2.929 4.424 5.765 4.485 8.499 0.061 2.744-0.963 5.171-3.082 7.291s-4.536 3.123-7.26 2.99c-2.714-0.133-5.519-1.638-8.397-4.516l-39.199-39.199-22.907 22.897 42.578 42.578c3.021 3.011 4.588 5.919 4.71 8.724s-0.901 5.304-3.113 7.506c-2.161 2.171-4.649 3.195-7.444 3.062-2.796-0.133-5.704-1.71-8.724-4.721l-49.9-49.9c-2.683-2.673-4.475-5.263-5.407-7.752-0.942-2.509-0.942-5.028-0.031-7.547 0.922-2.519 2.734-5.13 5.448-7.864l70.134-70.134c4.065-4.055 7.926-6.124 11.551-6.134 3.625-0.020 7.485 2.028 11.612 6.134l51.343 51.364c2.99 2.99 4.516 5.908 4.669 8.796 0.123 2.877-0.922 5.427-3.123 7.629-2.314 2.284-4.915 3.369-7.793 3.236zM443.228 353.024c-4.7 4.71-9.513 7.864-14.438 9.421-4.925 1.577-9.943 1.925-15.043 1.055-5.12-0.87-10.537-2.683-16.302-5.468-5.745-2.775-11.848-6.185-18.35-10.209-5.263-3.154-9.073-5.345-11.459-6.615-2.376-1.27-4.946-2.314-7.69-3.123-2.755-0.819-5.325-1.055-7.7-0.696-2.376 0.338-4.495 1.444-6.369 3.308-3.011 3.011-4.086 7.076-3.236 12.206 0.84 5.14 3.707 10.138 8.591 15.032 5.263 5.253 10.066 8.079 14.418 8.489 4.342 0.389 9.134-0.317 14.356-2.15 3.768-1.137 6.769-1.69 8.97-1.649 2.212 0.051 4.383 1.157 6.554 3.318 2.376 2.386 3.451 5.274 3.236 8.643-0.205 3.4-1.444 6.236-3.686 8.479-2.458 2.458-5.632 4.342-9.482 5.663-3.85 1.311-8.335 1.782-13.455 1.382s-10.476-1.987-16.067-4.731c-5.601-2.765-11.264-7.014-16.998-12.739-7.178-7.168-12.329-14.459-15.493-21.924-3.164-7.444-4.137-14.561-2.959-21.34 1.188-6.789 4.352-12.759 9.482-17.9 5.386-5.366 11.223-8.561 17.51-9.533 6.277-0.973 12.718-0.246 19.343 2.161 6.615 2.427 14.070 6.195 22.333 11.325 6.154 3.86 11.233 6.779 15.237 8.755 4.024 1.966 7.926 2.929 11.756 2.898 3.83-0.061 7.281-1.618 10.373-4.71 3.901-3.922 5.407-8.919 4.526-15.032-0.901-6.103-4.147-11.96-9.748-17.562-4.065-4.055-7.997-6.687-11.807-7.916-3.789-1.208-7.383-1.495-10.762-0.891-3.369 0.635-7.127 1.823-11.295 3.604-3.471 1.526-6.543 2.253-9.185 2.13-2.662-0.113-4.987-1.157-6.973-3.154-2.468-2.458-3.666-5.304-3.625-8.52 0.041-3.236 1.219-5.99 3.502-8.284 3.932-3.942 9.329-6.676 16.159-8.223 6.83-1.516 13.619-1.413 20.357 0.328 9.462 2.499 18.801 8.346 28.006 17.551 7.68 7.68 13.046 15.596 16.108 23.747 3.041 8.161 3.779 15.913 2.171 23.276-1.597 7.434-5.222 13.957-10.865 19.599zM614.533 561.869c-9.759 9.769-20.060 16.476-30.853 20.152s-21.617 4.004-32.492 0.983c-10.854-3.021-21.125-9.37-30.802-19.026-7.117-7.127-12.37-14.592-15.739-22.426s-4.915-15.8-4.618-23.9c0.297-8.1 2.396-16.179 6.339-24.207 3.912-8.038 9.462-15.636 16.63-22.815 7.004-7.004 14.51-12.534 22.508-16.589 7.987-4.055 16.046-6.287 24.197-6.707 8.161-0.43 16.282 1.065 24.412 4.485s15.852 8.755 23.153 16.067c7.342 7.342 12.698 15.002 16.077 22.979 3.4 7.967 4.905 16.067 4.485 24.3-0.43 8.243-2.621 16.282-6.574 24.115-3.932 7.844-9.513 15.38-16.722 22.589zM611.809 499.753c-1.628-6.461-4.864-12.124-9.708-16.957-3.758-3.789-7.926-6.543-12.513-8.305-4.536-1.761-9.462-2.458-14.715-2.079-5.284 0.379-10.721 2.038-16.343 4.997-5.622 2.949-11.080 7.076-16.374 12.38-5.274 5.263-9.349 10.67-12.227 16.22-2.888 5.55-4.536 10.854-4.925 15.872-0.41 5.018 0.276 9.851 2.058 14.479 1.792 4.628 4.557 8.827 8.346 12.605 5.294 5.304 11.284 8.714 17.93 10.24 6.666 1.516 13.609 0.891 20.828-1.915 7.199-2.796 14.213-7.619 21.053-14.449 7.393-7.393 12.39-14.797 15.053-22.221 2.662-7.444 3.164-14.387 1.536-20.869zM512 960c-282.767 0-512-229.233-512-512s229.233-512 512-512 512 229.233 512 512-229.233 512-512 512zM787.159 455.772l-303.913-303.903c-14.766-14.756-38.717-14.756-53.473 0l-213.893 213.903c-14.766 14.756-14.766 38.707 0 53.484l303.903 303.903c14.756 14.756 167.055 14.756 181.811 0l21.391-21.391-26.86-26.86c-17.725 3.727-36.925-1.27-50.688-15.032-21.658-21.658-21.658-56.781 0-78.428 21.658-21.658 56.781-21.658 78.428 0 13.773 13.763 18.77 32.952 15.043 50.678l26.849 26.86 21.391-21.391c14.766-14.776 14.766-167.055 0.010-181.821zM814.766 729.385l-114.074-114.084c-5.898-5.908-15.473-5.908-21.391 0-5.898 5.908-5.898 15.483 0 21.381l114.094 114.084c5.878 5.908 15.483 5.908 21.381 0 5.898-5.888 5.898-15.462-0.010-21.381z" />
<glyph unicode="&#xe612;" d="M983.040 728.566l-240.067 209.347-240.067-209.347h131.359c-44.237-271.677-295.25-483.021-580.905-438.077-12.564 1.966-17.654-14.95-5.304-19.241 355.492-123.72 765.041 79.565 824.279 457.318h110.705zM716.8 377.559c-36.905-34.12-78.182-63.846-122.88-88.709v-337.49h122.88v426.199zM409.6-48.64h122.88v307.395c-39.045-16.65-80.148-29.768-122.88-38.932v-268.462zM778.24-48.64h122.88v746.486h-3.103c-19.282-95.273-61.133-181.504-119.777-254.341v-492.145zM163.84 211.63c-41.728 6.093-82.821 15.892-122.88 29.635v-289.905h122.88v260.27zM225.28-48.64h122.88v258.13c-27.945-3.389-56.422-5.171-85.35-5.171-12.554 0-25.057 0.471-37.53 1.147v-254.106z" />
<glyph unicode="&#xe613;" d="M512-64c-282.317 0-512 229.683-512 512s229.683 512 512 512c282.317 0 512-229.683 512-512 0-282.317-229.683-512-512-512zM512 898.56c-248.443 0-450.56-202.117-450.56-450.56s202.117-450.56 450.56-450.56c248.443 0 450.56 202.117 450.56 450.56 0 248.443-202.117 450.56-450.56 450.56zM805.335 624.824l-149.494 130.376-149.504-130.376h81.807c-27.535-169.185-183.869-300.82-361.779-272.824-7.823 1.219-10.998-9.308-3.297-11.991 221.389-77.025 476.447 49.551 513.341 284.805l68.925 0.010zM639.549 406.221c-22.989-21.238-48.691-39.762-76.534-55.245v-210.176h76.534v265.421zM448.225 140.8h76.534v191.416c-24.32-10.363-49.92-18.545-76.534-24.228v-167.188zM677.796 140.8h76.544v464.886h-1.935c-12.001-59.331-38.072-113.039-74.578-158.403v-306.483h-0.031zM295.178 302.879c-25.989 3.799-51.579 9.902-76.524 18.463v-180.541h76.524v162.079zM333.445 140.8h76.524v160.737c-17.398-2.099-35.133-3.205-53.156-3.205-7.813 0-15.606 0.287-23.368 0.707v-158.239z" />
<glyph unicode="&#xe614;" d="M512 960c-282.767 0-512-229.233-512-512s229.233-512 512-512 512 229.233 512 512-229.233 512-512 512zM296.96 140.8h-81.92v180.541c30.72-8.561 51.2-14.664 81.92-18.463v-162.079zM409.6 140.8h-71.68v158.249c0-0.42 13.128-0.717 20.951-0.717 18.022 0 30.249 1.106 50.729 3.215v-160.748zM522.24 140.8h-71.68v167.188c20.48 5.704 51.2 13.865 71.68 24.238v-191.427zM634.88 140.8h-71.68v210.176c30.72 15.483 51.2 33.987 71.68 55.245v-265.421zM757.76 140.8h-81.92v306.493c40.96 45.353 64.563 103.107 76.564 154.307h5.356v-460.8zM736.41 622.080c-36.905-235.52-291.953-360.479-513.341-283.443-7.69 2.683-4.526 12.524 3.297 11.305 177.9-28.006 334.223 108.298 361.779 272.138h-81.807l74.752 66.56 74.752 65.874 149.514-132.434h-68.946z" />
<glyph unicode="&#xe615;" d="M1002.926 189.727c-3.983 3.082-507.218 278.886-511.795 280.832l280.801-512c0.563 77.015 0.102 154.071 0.215 231.096 76.923 0.102 153.866 0 230.779 0.072zM519.7 333.292c-18.258-6.513-37.827-10.25-58.296-10.25-95.99 0-174.080 78.090-174.080 174.080s78.090 174.080 174.080 174.080 174.080-78.090 174.080-174.080c0-18.883-3.123-37.018-8.704-54.047 17.203-9.4 35.564-19.446 54.63-29.88 9.984 26.092 15.514 54.374 15.514 83.927 0 129.864-105.646 235.52-235.52 235.52s-235.52-105.656-235.52-235.52c0-129.864 105.646-235.52 235.52-235.52 31.171 0 60.928 6.144 88.187 17.193l-29.891 54.497zM618.793 152.607c-47.974-21.996-101.253-34.365-157.389-34.365-208.916 0-378.89 169.964-378.89 378.88 0 208.916 169.974 378.88 378.89 378.88s378.88-169.964 378.88-378.88c0-54.497-11.663-106.312-32.471-153.18 18.401-10.086 36.526-20.040 53.996-29.645 25.549 55.726 39.905 117.606 39.905 182.825 0 242.79-197.53 440.32-440.32 440.32-242.801 0-440.33-197.53-440.33-440.32 0-242.79 197.53-440.32 440.33-440.32 66.836 0 130.212 15.043 187.013 41.8l-29.614 54.006z" />
<glyph unicode="&#xe616;" d="M512-64c-282.317 0-512 229.683-512 512s229.683 512 512 512c282.317 0 512-229.683 512-512 0-282.317-229.683-512-512-512zM512 898.56c-248.443 0-450.56-202.117-450.56-450.56s202.117-450.56 450.56-450.56c248.443 0 450.56 202.117 450.56 450.56 0 248.443-202.117 450.56-450.56 450.56zM819.2 286.382c-2.488 1.925-317.389 174.52-320.246 175.739l175.708-320.379c0.358 48.189 0.082 96.399 0.143 144.599 48.138 0.082 96.276 0 144.394 0.041zM516.833 376.218c-11.428-4.055-23.675-6.42-36.485-6.42-60.068 0-108.933 48.855-108.933 108.933 0 60.068 48.865 108.933 108.933 108.933s108.933-48.865 108.933-108.933c0-11.807-1.956-23.163-5.437-33.812 10.762-5.878 22.241-12.155 34.181-18.698 6.246 16.323 9.697 34.028 9.697 52.511 0 81.265-66.099 147.384-147.374 147.384-81.275 0-147.374-66.12-147.374-147.384 0-81.254 66.109-147.374 147.374-147.374 19.507 0 38.124 3.84 55.183 10.762l-18.698 34.099zM578.836 263.137c-30.044-13.763-63.365-21.504-98.499-21.504-130.724 0-237.087 106.363-237.087 237.087 0 130.734 106.363 237.087 237.087 237.087 130.734 0 237.076-106.363 237.076-237.087 0-34.099-7.301-66.529-20.296-95.846 11.51-6.298 22.835-12.554 33.782-18.555 16.005 34.847 24.975 73.595 24.975 114.391 0 151.931-123.617 275.538-275.538 275.538-151.931 0.020-275.538-123.587-275.538-275.517 0-151.921 123.607-275.528 275.538-275.528 41.82 0 81.48 9.421 117.023 26.163l-18.524 33.772z" />
<glyph unicode="&#xe617;" d="M512 960c-282.767 0-512-229.233-512-512s229.233-512 512-512 512 229.233 512 512-229.233 512-512 512zM480.338 203.203c-151.931 0-275.538 123.607-275.538 275.528 0 151.931 123.607 275.538 275.538 275.538 151.921 0 275.538-123.607 275.538-275.538 0-40.806-8.991-79.534-24.975-114.391-10.926 6.001-22.272 12.237-33.782 18.545 13.015 29.327 20.306 61.757 20.306 95.857 0 130.734-106.353 237.087-237.087 237.087-130.724 0-237.087-106.363-237.087-237.087 0-130.734 106.363-237.087 237.087-237.087 35.123 0 68.465 7.741 98.499 21.504l18.524-33.792c-35.543-16.742-75.203-26.163-117.023-26.163zM480.348 587.674c-60.068 0-108.933-48.865-108.933-108.933s48.865-108.923 108.933-108.923c12.81 0 25.057 2.345 36.485 6.41l18.698-34.099c-17.060-6.922-35.676-10.762-55.183-10.762-81.275 0-147.374 66.12-147.374 147.374 0 81.265 66.109 147.384 147.374 147.384 81.275 0 147.374-66.12 147.374-147.384 0-18.493-3.451-36.188-9.697-52.511-11.94 6.533-23.429 12.82-34.191 18.698 3.492 10.66 5.448 22.006 5.448 33.812 0 60.068-48.865 108.933-108.933 108.933zM674.662 141.732l-175.708 320.379c2.857-1.208 317.757-173.804 320.246-175.729-48.118-0.041-96.266 0.031-144.415-0.041-0.051-48.2 0.236-96.41-0.123-144.609z" />
<glyph unicode="&#xe618;" d="M962.56 898.56h-901.12c-33.925 0-61.44-27.515-61.44-61.44v-778.24c0-33.925 27.515-61.44 61.44-61.44h901.12c33.935 0 61.44 27.525 61.44 61.44v778.24c0 33.935-27.505 61.44-61.44 61.44zM808.96 857.6c22.579 0 40.96-18.371 40.96-40.96s-18.381-40.96-40.96-40.96-40.96 18.371-40.96 40.96 18.381 40.96 40.96 40.96zM696.32 857.6c22.579 0 40.96-18.371 40.96-40.96s-18.381-40.96-40.96-40.96-40.96 18.371-40.96 40.96 18.381 40.96 40.96 40.96zM962.56 58.88h-901.12v675.84h901.12v-675.84zM921.6 775.68c-22.579 0-40.96 18.371-40.96 40.96s18.381 40.96 40.96 40.96 40.96-18.371 40.96-40.96-18.381-40.96-40.96-40.96zM490.639 624.814c14.203 1.915 28.662 1.731 42.865 0.082 0.143-39.434 0.061-78.838 0-118.272-14.377 0.727-28.764 0.799-43.1-0.389 0.625 39.537 0.020 79.084 0.236 118.579zM336.968 586.516c12.882 5.56 25.774 11.11 38.943 15.995 15.647-36.444 30.73-73.165 45.629-109.896-13.783-4.014-26.419-10.947-39.875-15.79-14.438 36.741-30.71 72.765-44.698 109.691zM602.675 492.79c14.879 36.608 29.962 73.175 45.558 109.517 13.24-4.567 26.143-10.179 38.984-15.729-14.029-36.905-30.228-72.98-44.78-109.701-13.373 4.936-26.173 11.438-39.762 15.913zM210.33 490.148c7.301 11.776 19.2 21.617 29.952 30.812 27.218-28.641 56.474-55.337 83.18-84.357-11.121-8.817-20.367-19.599-30.444-29.563-27.3 27.976-55.265 55.296-82.688 83.108zM783.749 520.233c11.213-7.485 22.528-18.749 30.075-29.952-27.464-27.924-55.316-55.429-82.924-83.169-9.636 10.547-19.937 20.408-30.239 30.28 27.679 27.638 55.194 55.419 83.087 82.842zM144.118 393.615c36.956-13.701 72.817-30.239 109.517-44.677-4.444-13.568-11.796-26.081-15.698-39.895-36.639 15.176-73.359 30.228-109.926 45.578 4.946 13.148 10.445 26.122 16.108 38.994zM770.437 348.938c36.741 14.438 72.663 30.935 109.64 44.677 5.796-12.78 11.121-25.805 15.923-38.973-36.465-15.432-73.021-30.566-109.691-45.568-4.209 13.742-11.305 26.317-15.872 39.864zM521.032 235.223c-3.471 0.727-7.045 1.157-10.742 1.157-28.283 0-51.2-22.917-51.2-51.2s22.917-51.2 51.2-51.2c28.068 0 50.811 22.6 51.149 50.596l84.511 131.133-124.918-80.486z" />
<glyph unicode="&#xe619;" d="M512-64c-282.317 0-512 229.683-512 512s229.683 512 512 512 512-229.683 512-512-229.683-512-512-512zM512 898.56c-248.443 0-450.56-202.117-450.56-450.56s202.117-450.56 450.56-450.56 450.56 202.117 450.56 450.56-202.117 450.56-450.56 450.56zM782.336 718.336h-540.672c-20.357 0-36.864-16.507-36.864-36.864v-466.944c0-20.347 16.507-36.874 36.864-36.874h540.672c20.357 0 36.864 16.517 36.864 36.874v466.944c0 20.367-16.497 36.864-36.864 36.864zM690.176 693.76c13.537 0 24.566-11.018 24.566-24.576s-11.028-24.576-24.566-24.576c-13.548 0-24.576 11.018-24.576 24.576s11.028 24.576 24.576 24.576zM622.592 693.76c13.548 0 24.576-11.018 24.576-24.576s-11.028-24.576-24.576-24.576-24.576 11.018-24.576 24.576 11.028 24.576 24.576 24.576zM782.336 214.528h-540.672v405.504h540.672v-405.504zM757.76 644.608c-13.548 0-24.576 11.018-24.576 24.576s11.028 24.576 24.576 24.576 24.576-11.018 24.576-24.576-11.028-24.576-24.576-24.576zM499.19 554.086c8.52 1.147 17.193 1.034 25.713 0.041 0.082-23.665 0.041-47.299 0-70.963-8.632 0.43-17.254 0.481-25.856-0.236 0.369 23.736 0.010 47.462 0.143 71.158zM406.979 531.108c7.731 3.338 15.462 6.666 23.368 9.595 9.39-21.862 18.442-43.899 27.382-65.935-8.274-2.406-15.852-6.574-23.921-9.472-8.673 22.047-18.432 43.663-26.829 65.812zM566.405 474.88c8.929 21.965 17.971 43.909 27.331 65.71 7.946-2.744 15.688-6.113 23.388-9.441-8.417-22.139-18.135-43.786-26.87-65.823-8.018 2.959-15.698 6.861-23.849 9.554zM330.998 473.283c4.383 7.066 11.52 12.974 17.971 18.493 16.333-17.183 33.884-33.198 49.91-50.616-6.666-5.294-12.216-11.756-18.268-17.736-16.384 16.783-33.157 33.178-49.613 49.859zM675.052 491.336c6.728-4.495 13.517-11.254 18.043-17.971-16.466-16.753-33.188-33.26-49.746-49.9-5.775 6.328-11.96 12.237-18.135 18.166 16.589 16.589 33.106 33.249 49.838 49.705zM291.267 415.365c22.18-8.223 43.694-18.135 65.71-26.808-2.662-8.141-7.076-15.636-9.421-23.941-21.975 9.114-44.012 18.135-65.956 27.351 2.98 7.895 6.277 15.677 9.667 23.398zM667.064 388.557c22.047 8.673 43.602 18.565 65.792 26.808 3.482-7.67 6.666-15.483 9.554-23.388-21.883-9.247-43.807-18.33-65.812-27.331-2.54 8.243-6.799 15.78-9.533 23.91zM517.417 320.328c-2.089 0.44-4.229 0.696-6.441 0.696-16.968 0-30.72-13.752-30.72-30.72s13.752-30.72 30.72-30.72c16.845 0 30.484 13.558 30.689 30.362l50.708 78.684-74.957-48.302z" />
<glyph unicode="&#xe61a;" d="M266.24 212.48h532.48v409.6h-532.48v-409.6zM762.88 391.977c-21.883-9.247-43.807-18.33-65.812-27.331-2.529 8.243-6.789 15.78-9.533 23.91 22.047 8.673 43.602 18.565 65.792 26.808 3.482-7.67 6.676-15.473 9.554-23.388zM695.532 491.336c6.728-4.495 13.517-11.254 18.043-17.971-16.466-16.753-33.188-33.26-49.746-49.9-5.775 6.328-11.96 12.237-18.135 18.166 16.589 16.589 33.106 33.249 49.838 49.705zM614.216 540.59c7.946-2.744 15.688-6.113 23.388-9.441-8.417-22.139-18.135-43.786-26.87-65.823-8.018 2.97-15.698 6.861-23.849 9.554 8.94 21.955 17.971 43.899 27.331 65.71zM519.67 554.086c8.52 1.147 17.193 1.034 25.713 0.041 0.082-23.665 0.041-47.299 0-70.963-8.632 0.43-17.265 0.481-25.856-0.236 0.369 23.736 0.010 47.462 0.143 71.158zM531.446 321.034c2.222 0 4.372-0.256 6.451-0.696l74.947 48.302-50.708-78.684c-0.205-16.804-13.844-30.362-30.689-30.362-16.968 0-30.72 13.752-30.72 30.72s13.763 30.72 30.72 30.72zM450.826 540.703c9.39-21.862 18.442-43.899 27.382-65.935-8.274-2.406-15.852-6.574-23.921-9.472-8.663 22.047-18.422 43.663-26.819 65.812 7.721 3.338 15.452 6.666 23.357 9.595zM369.449 491.776c16.333-17.183 33.884-33.198 49.91-50.616-6.666-5.294-12.216-11.756-18.268-17.736-16.384 16.794-33.157 33.178-49.613 49.869 4.383 7.066 11.52 12.964 17.971 18.483zM311.747 415.365c22.18-8.223 43.694-18.135 65.71-26.808-2.662-8.141-7.076-15.636-9.421-23.941-21.975 9.114-44.012 18.135-65.956 27.351 2.98 7.895 6.277 15.677 9.667 23.398zM667.648 669.184c0-13.573-11.003-24.576-24.576-24.576s-24.576 11.003-24.576 24.576c0 13.573 11.003 24.576 24.576 24.576 13.573 0 24.576-11.003 24.576-24.576zM710.656 644.608c13.537 0 24.566 11.018 24.566 24.576s-11.018 24.576-24.566 24.576c-13.548 0-24.576-11.018-24.576-24.576s11.028-24.576 24.576-24.576zM802.816 669.184c0-13.573-11.003-24.576-24.576-24.576s-24.576 11.003-24.576 24.576c0 13.573 11.003 24.576 24.576 24.576 13.573 0 24.576-11.003 24.576-24.576zM512 960c-282.767 0-512-229.233-512-512s229.233-512 512-512 512 229.233 512 512-229.233 512-512 512zM839.68 208.394c0-20.367-16.497-36.874-36.864-36.874h-540.672c-20.357 0-36.864 16.507-36.864 36.874v468.972c0 20.367 16.507 36.874 36.864 36.874h540.672c20.357 0 36.864-16.507 36.864-36.874v-468.972z" />
<glyph unicode="&#xe61b;" d="M962.56 898.56h-901.12c-33.925 0-61.44-27.515-61.44-61.44v-778.24c0-33.925 27.515-61.44 61.44-61.44h901.12c33.935 0 61.44 27.525 61.44 61.44v778.24c0 33.935-27.505 61.44-61.44 61.44zM808.96 857.6c22.579 0 40.96-18.371 40.96-40.96s-18.381-40.96-40.96-40.96-40.96 18.371-40.96 40.96 18.381 40.96 40.96 40.96zM696.32 857.6c22.579 0 40.96-18.371 40.96-40.96s-18.381-40.96-40.96-40.96-40.96 18.371-40.96 40.96 18.381 40.96 40.96 40.96zM962.56 58.88h-901.12v675.84h901.12v-675.84zM921.6 775.68c-22.579 0-40.96 18.371-40.96 40.96s18.381 40.96 40.96 40.96 40.96-18.371 40.96-40.96-18.381-40.96-40.96-40.96zM516.352 642.099c4.649 1.649 9.687-0.942 12.38-4.782 6.82-9.175 13.507-18.463 20.224-27.73 5.673-7.823 16.476-11.5 25.713-8.602 11.561 3.738 23.071 7.67 34.703 11.162 6.328 1.833 13.087-3.123 13.384-9.656 0.246-11.96 0.307-23.941 0.215-35.912-0.215-9.492 6.195-18.637 15.032-21.985 11.786-3.871 23.685-7.475 35.348-11.694 6.185-2.181 8.724-10.25 5.13-15.677-6.83-10.086-14.285-19.753-21.371-29.665-5.212-7.373-5.386-17.889-0.666-25.539 7.168-10.138 14.725-20.019 21.791-30.218 3.758-5.335 1.72-13.507-4.444-16.015-11.612-4.198-23.491-7.68-35.195-11.704-8.294-2.796-14.561-10.742-15.503-19.405-0.195-12.718-0.092-25.426-0.276-38.144 0.051-6.728-6.81-12.175-13.363-10.301-11.653 3.328-23.071 7.455-34.642 11.018-9.021 3.011-19.784-0.461-25.416-8.1-7.26-9.738-14.244-19.702-21.576-29.379-3.994-5.294-12.626-5.376-16.63-0.061-7.383 9.687-14.367 19.661-21.647 29.42-5.775 7.803-16.804 11.141-25.958 7.905-11.090-3.533-22.118-7.281-33.249-10.66-6.748-2.417-14.275 3-14.285 10.107-0.143 11.704-0.082 23.409-0.061 35.113 0.205 9.769-6.359 19.21-15.585 22.395-11.489 3.881-23.101 7.465-34.57 11.418-6.308 2.017-9.062 10.25-5.335 15.729 6.728 10.138 14.223 19.763 21.279 29.665 5.571 7.68 5.55 18.903 0.092 26.624-7.096 9.933-14.397 19.722-21.381 29.737-3.656 5.478-1.014 13.537 5.212 15.729 11.428 4.147 23.081 7.67 34.662 11.407 8.202 2.826 14.356 10.67 15.462 19.241 0.451 13.015-0.154 26.061 0.338 39.066 0.328 6.533 7.229 11.244 13.455 9.411 11.653-3.451 23.142-7.444 34.755-11.080 9.431-2.99 20.48 1.065 25.999 9.216 6.103 8.561 12.349 17.009 18.504 25.539 1.884 2.734 4.188 5.427 7.475 6.41zM655.831 343.951c37.601-38.902 74.752-78.244 112.169-117.35-31.98-0.164-63.949 0.051-95.918-0.102-0.143-31.969 0.031-63.949-0.082-95.918-43.612 46.746-87.276 93.44-130.836 140.227 8.694 6.851 14.807 16.159 21.033 25.16 7.393-1.69 14.356-4.864 21.77-6.502 14.397-3.287 29.962-1.065 42.732 6.4 17.121 9.769 27.75 28.631 29.133 48.087zM256 226.601c33.27 34.775 66.099 69.99 99.727 104.387 6.39-24.443 29.87-43.131 55.265-42.977 12.524-0.604 24.074 4.69 35.85 7.987 8.335-11.807 16.855-24.187 29.983-31.181-41.605-44.759-83.241-89.477-124.826-134.236-0.123 31.969 0.082 63.939-0.092 95.908-31.98 0.184-63.939-0.051-95.908 0.113z" />
<glyph unicode="&#xe61c;" d="M512-64c-282.317 0-512 229.683-512 512s229.683 512 512 512 512-229.683 512-512-229.683-512-512-512zM512 898.56c-248.443 0-450.56-202.117-450.56-450.56s202.117-450.56 450.56-450.56 450.56 202.117 450.56 450.56-202.117 450.56-450.56 450.56zM782.336 718.336h-540.672c-20.357 0-36.864-16.507-36.864-36.864v-466.944c0-20.347 16.507-36.874 36.864-36.874h540.672c20.357 0 36.864 16.517 36.864 36.874v466.944c0 20.367-16.497 36.864-36.864 36.864zM690.176 693.76c13.537 0 24.566-11.018 24.566-24.576s-11.028-24.576-24.566-24.576c-13.548 0-24.576 11.018-24.576 24.576s11.028 24.576 24.576 24.576zM622.592 693.76c13.548 0 24.576-11.018 24.576-24.576s-11.028-24.576-24.576-24.576-24.576 11.018-24.576 24.576 11.028 24.576 24.576 24.576zM782.336 214.528h-540.672v405.504h540.672v-405.504zM757.76 644.608c-13.548 0-24.576 11.018-24.576 24.576s11.028 24.576 24.576 24.576 24.576-11.018 24.576-24.576-11.028-24.576-24.576-24.576zM514.611 564.46c2.785 0.993 5.816-0.563 7.434-2.867 4.086-5.509 8.1-11.080 12.145-16.64 3.4-4.69 9.882-6.902 15.421-5.161 6.943 2.243 13.844 4.608 20.818 6.697 3.799 1.106 7.864-1.874 8.038-5.786 0.143-7.178 0.184-14.367 0.123-21.545-0.123-5.704 3.717-11.182 9.021-13.199 7.066-2.324 14.213-4.485 21.207-7.014 3.707-1.311 5.243-6.154 3.082-9.4-4.096-6.052-8.571-11.858-12.82-17.797-3.133-4.424-3.236-10.732-0.41-15.329 4.311-6.083 8.837-12.012 13.076-18.135 2.263-3.205 1.044-8.1-2.673-9.605-6.963-2.519-14.090-4.608-21.115-7.025-4.977-1.679-8.745-6.451-9.298-11.643-0.123-7.629-0.061-15.258-0.174-22.886 0.031-4.045-4.076-7.301-8.008-6.185-7.004 1.997-13.855 4.475-20.787 6.615-5.417 1.812-11.868-0.276-15.247-4.864-4.362-5.837-8.54-11.827-12.954-17.633-2.396-3.174-7.578-3.215-9.974-0.031-4.434 5.806-8.622 11.786-12.995 17.654-3.461 4.68-10.076 6.676-15.575 4.741-6.656-2.12-13.271-4.362-19.948-6.39-4.045-1.454-8.561 1.802-8.571 6.062-0.082 7.025-0.051 14.039-0.031 21.074 0.123 5.857-3.82 11.52-9.349 13.435-6.892 2.335-13.865 4.485-20.746 6.851-3.789 1.208-5.437 6.164-3.205 9.441 4.035 6.083 8.53 11.858 12.769 17.797 3.338 4.608 3.328 11.346 0.051 15.974-4.26 5.96-8.632 11.827-12.82 17.838-2.191 3.287-0.614 8.12 3.123 9.441 6.861 2.488 13.855 4.598 20.797 6.84 4.915 1.7 8.612 6.4 9.277 11.551 0.266 7.813-0.092 15.636 0.205 23.439 0.195 3.912 4.332 6.738 8.069 5.642 6.994-2.068 13.885-4.475 20.859-6.646 5.663-1.792 12.288 0.645 15.596 5.53 3.656 5.13 7.414 10.209 11.1 15.329 1.126 1.628 2.519 3.236 4.485 3.83zM598.303 385.567c22.559-23.337 44.851-46.95 67.297-70.41-19.19-0.102-38.369 0.031-57.549-0.061-0.092-19.18 0.020-38.369-0.051-57.549-26.173 28.037-52.367 56.064-78.5 84.132 5.222 4.116 8.878 9.697 12.616 15.104 4.434-1.014 8.622-2.918 13.056-3.901 8.643-1.966 17.981-0.645 25.641 3.84 10.281 5.857 16.66 17.183 17.49 28.846zM358.4 315.156c19.958 20.869 39.66 41.994 59.832 62.628 3.84-14.674 17.92-25.866 33.157-25.784 7.516-0.369 14.449 2.806 21.514 4.792 5.007-7.086 10.117-14.51 17.992-18.708-24.965-26.849-49.94-53.688-74.895-80.538-0.072 19.18 0.051 38.359-0.051 57.539-19.19 0.123-38.369-0.020-57.549 0.072z" />
<glyph unicode="&#xe61d;" d="M710.656 644.608c13.537 0 24.566 11.018 24.566 24.576s-11.018 24.576-24.566 24.576c-13.548 0-24.576-11.018-24.576-24.576s11.028-24.576 24.576-24.576zM266.24 212.48h532.48v409.6h-532.48v-409.6zM628.531 315.095c-0.092-19.18 0.020-38.369-0.051-57.549-26.173 28.037-52.367 56.064-78.5 84.132 5.222 4.116 8.878 9.697 12.616 15.104 4.434-1.014 8.622-2.918 13.056-3.901 8.643-1.966 17.981-0.645 25.641 3.84 10.271 5.857 16.65 17.183 17.48 28.846 22.559-23.337 44.851-46.95 67.297-70.41-19.18-0.092-38.359 0.031-57.539-0.061zM454.4 471.654c-4.26 5.96-8.632 11.827-12.82 17.838-2.191 3.287-0.614 8.12 3.123 9.441 6.861 2.488 13.855 4.598 20.797 6.84 4.915 1.7 8.612 6.4 9.277 11.551 0.266 7.813-0.092 15.636 0.205 23.439 0.195 3.912 4.332 6.738 8.069 5.642 6.994-2.068 13.885-4.475 20.859-6.646 5.663-1.792 12.288 0.645 15.596 5.53 3.656 5.13 7.404 10.209 11.1 15.329 1.126 1.638 2.509 3.256 4.485 3.84 2.785 0.993 5.806-0.563 7.434-2.867 4.086-5.509 8.1-11.080 12.145-16.64 3.4-4.69 9.882-6.902 15.421-5.161 6.943 2.243 13.844 4.608 20.818 6.697 3.799 1.106 7.864-1.874 8.038-5.786 0.143-7.178 0.184-14.367 0.123-21.545-0.123-5.704 3.717-11.182 9.021-13.199 7.066-2.324 14.213-4.485 21.207-7.014 3.707-1.311 5.243-6.154 3.082-9.4-4.096-6.052-8.571-11.858-12.82-17.797-3.133-4.424-3.236-10.732-0.41-15.329 4.311-6.083 8.837-12.012 13.076-18.135 2.263-3.205 1.044-8.1-2.673-9.605-6.963-2.519-14.090-4.608-21.115-7.025-4.977-1.679-8.745-6.451-9.298-11.643-0.123-7.629-0.061-15.258-0.174-22.886 0.031-4.045-4.076-7.301-8.008-6.185-7.004 1.997-13.855 4.475-20.787 6.615-5.417 1.812-11.868-0.276-15.247-4.864-4.362-5.837-8.54-11.827-12.954-17.633-2.396-3.174-7.567-3.215-9.984-0.031-4.424 5.806-8.612 11.786-12.984 17.654-3.461 4.68-10.076 6.676-15.575 4.741-6.656-2.12-13.271-4.362-19.948-6.39-4.045-1.454-8.561 1.802-8.571 6.062-0.082 7.025-0.051 14.039-0.031 21.074 0.123 5.857-3.82 11.52-9.349 13.435-6.892 2.335-13.865 4.485-20.746 6.851-3.789 1.208-5.437 6.164-3.205 9.441 4.035 6.083 8.53 11.858 12.769 17.797 3.338 4.598 3.328 11.336 0.051 15.964zM438.712 377.795c3.84-14.674 17.92-25.866 33.157-25.784 7.516-0.369 14.449 2.806 21.514 4.792 5.007-7.086 10.117-14.51 17.992-18.708-24.965-26.849-49.94-53.688-74.895-80.538-0.072 19.18 0.051 38.359-0.051 57.539-19.19 0.123-38.369-0.031-57.549 0.072 19.958 20.859 39.66 41.984 59.832 62.628zM667.648 669.184c0-13.573-11.003-24.576-24.576-24.576s-24.576 11.003-24.576 24.576c0 13.573 11.003 24.576 24.576 24.576 13.573 0 24.576-11.003 24.576-24.576zM802.816 669.184c0-13.573-11.003-24.576-24.576-24.576s-24.576 11.003-24.576 24.576c0 13.573 11.003 24.576 24.576 24.576 13.573 0 24.576-11.003 24.576-24.576zM512 960c-282.767 0-512-229.233-512-512s229.233-512 512-512 512 229.233 512 512-229.233 512-512 512zM839.68 208.394c0-20.367-16.497-36.874-36.864-36.874h-540.672c-20.357 0-36.864 16.507-36.864 36.874v468.972c0 20.367 16.507 36.874 36.864 36.874h540.672c20.357 0 36.864-16.507 36.864-36.874v-468.972z" />
<glyph unicode="&#xe61e;" d="M970.353 636.14l-20.634-8.54c-6.963 9.216-15.227 17.449-24.31 24.269l8.55 20.716c2.601 6.267-0.389 13.476-6.656 16.067l-34.048 14.121c-6.267 2.591-13.455-0.379-16.056-6.646l-8.643-20.705c-11.244 1.597-22.897 1.638-34.345 0.031l-8.54 20.623c-2.601 6.277-9.646 9.308-15.923 6.707l-34.068-14.111c-6.257-2.591-9.103-9.718-6.502-15.995l8.54-20.623c-9.216-6.963-17.449-15.237-24.269-24.32l-20.705 8.55c-6.267 2.601-13.476-0.389-16.077-6.656l-14.111-34.068c-2.601-6.267 0.369-13.455 6.636-16.046l20.705-8.632c-1.608-11.244-1.628-22.907-0.041-34.345l-20.623-8.54c-6.267-2.591-9.308-9.646-6.707-15.923l14.111-34.048c2.591-6.277 9.718-9.114 16.005-6.513l20.623 8.54c6.973-9.226 15.217-17.449 24.31-24.279l-8.55-20.716c-2.601-6.277 0.389-13.476 6.656-16.077l34.048-14.121c6.277-2.601 13.455 0.379 16.056 6.646l8.643 20.705c11.244-1.597 22.897-1.618 34.355-0.041l8.54-20.623c2.591-6.267 9.636-9.298 15.903-6.697l34.068 14.1c6.267 2.601 9.114 9.728 6.513 16.005l-8.54 20.613c9.216 6.984 17.449 15.237 24.269 24.32l20.705-8.55c6.267-2.601 13.476 0.389 16.067 6.656l14.121 34.048c2.601 6.277-0.369 13.466-6.636 16.056l-20.716 8.643c1.608 11.233 1.638 22.897 0.041 34.345l20.623 8.54c6.277 2.601 9.308 9.646 6.707 15.923l-14.1 34.048c-2.601 6.298-9.728 9.134-15.995 6.543zM874.998 497.050c-31.355-12.984-67.287 1.905-80.271 33.26-12.995 31.355 1.894 67.287 33.249 80.271 31.355 12.984 67.287-1.905 80.271-33.26 12.995-31.345-1.894-67.287-33.249-80.271zM820.767 371.323v-271.483h-450.56v686.080h450.56v-49.347h51.2v141.507c0 45.24-36.68 81.92-81.92 81.92h-389.12c-45.24 0-81.92-36.68-81.92-81.92v-860.16c0-45.24 36.68-81.92 81.92-81.92h389.12c45.24 0 81.92 36.68 81.92 81.92v353.403h-51.2zM554.865 867.84h81.92c5.663 0 10.24-4.588 10.24-10.24s-4.577-10.24-10.24-10.24h-81.92c-5.652 0-10.24 4.588-10.24 10.24s4.588 10.24 10.24 10.24zM592.415-15.524c-22.62 0-40.97 18.34-40.97 40.96s18.35 40.96 40.97 40.96 40.95-18.34 40.95-40.96-18.33-40.96-40.95-40.96zM22.61 698.593h245.76v-51.2h-245.76v51.2zM84.050 596.193h184.32v-51.2h-184.32v51.2zM206.93 493.793h61.44v-51.2h-61.44v51.2z" />
<glyph unicode="&#xe61f;" d="M512-64c-282.317 0-512 229.683-512 512s229.683 512 512 512 512-229.683 512-512-229.683-512-512-512zM512 898.56c-248.443 0-450.56-202.117-450.56-450.56s202.117-450.56 450.56-450.56 450.56 202.117 450.56 450.56-202.117 450.56-450.56 450.56zM787.005 560.886l-12.38-5.12c-4.178 5.53-9.144 10.465-14.592 14.561l5.13 12.431c1.556 3.758-0.225 8.090-3.994 9.636l-20.429 8.468c-3.758 1.556-8.069-0.225-9.626-3.983l-5.192-12.421c-6.738 0.963-13.742 0.983-20.613 0.020l-5.12 12.37c-1.556 3.768-5.786 5.581-9.554 4.024l-20.439-8.468c-3.758-1.546-5.458-5.827-3.901-9.595l5.12-12.37c-5.53-4.178-10.465-9.144-14.561-14.592l-12.431 5.13c-3.748 1.556-8.079-0.236-9.646-3.994l-8.458-20.439c-1.556-3.758 0.215-8.069 3.983-9.626l12.431-5.171c-0.973-6.748-0.983-13.742-0.031-20.613l-12.37-5.12c-3.768-1.546-5.591-5.786-4.035-9.554l8.468-20.429c1.546-3.768 5.827-5.468 9.605-3.912l12.37 5.12c4.188-5.54 9.144-10.465 14.602-14.572l-5.14-12.421c-1.556-3.768 0.236-8.090 4.004-9.646l20.429-8.468c3.758-1.556 8.069 0.215 9.626 3.983l5.181 12.421c6.748-0.952 13.742-0.973 20.623-0.020l5.12-12.38c1.556-3.748 5.775-5.581 9.544-4.014l20.449 8.458c3.748 1.556 5.458 5.837 3.901 9.605l-5.13 12.37c5.54 4.188 10.476 9.144 14.572 14.592l12.421-5.13c3.758-1.556 8.090 0.236 9.636 3.994l8.479 20.429c1.556 3.768-0.225 8.079-3.994 9.626l-12.411 5.181c0.963 6.738 0.983 13.732 0.020 20.603l12.37 5.12c3.768 1.556 5.591 5.786 4.035 9.554l-8.468 20.429c-1.567 3.779-5.837 5.489-9.605 3.932zM729.805 477.43c-18.821-7.793-40.376 1.147-48.169 19.958s1.137 40.366 19.958 48.169c18.811 7.793 40.356-1.147 48.148-19.958 7.803-18.811-1.137-40.376-19.937-48.169zM697.252 401.992v-162.888h-270.336v411.648h270.326v-29.604h30.72v84.9c0 27.136-21.996 49.152-49.152 49.152h-233.452c-27.146 0-49.152-22.006-49.152-49.152v-516.096c0-27.136 22.006-49.152 49.152-49.152h233.462c27.146 0 49.152 22.006 49.152 49.152v212.040h-30.72zM537.713 699.904h49.162c3.389 0 6.144-2.755 6.144-6.144s-2.755-6.144-6.144-6.144h-49.162c-3.389 0-6.144 2.755-6.144 6.144s2.755 6.144 6.144 6.144zM560.251 169.892c-13.568 0-24.586 10.998-24.586 24.566 0 13.578 11.018 24.576 24.586 24.576s24.556-10.998 24.556-24.576c0-13.568-10.988-24.566-24.556-24.566zM218.368 598.354h147.456v-30.72h-147.456v30.72zM255.232 536.914h110.592v-30.72h-110.592v30.72zM328.96 475.474h36.864v-30.72h-36.864v30.72z" />
<glyph unicode="&#xe620;" d="M512 960c-282.767 0-512-229.233-512-512s229.233-512 512-512 512 229.233 512 512-229.233 512-512 512zM389.12 448h-40.96v30.72h40.96v-30.72zM389.12 509.44h-112.64v30.72h112.64v-30.72zM389.12 570.88h-153.6v30.72h153.6v-30.72zM747.52 189.952c0-27.136-21.074-49.152-48.22-49.152h-233.462c-27.146 0-45.998 22.006-45.998 49.152v516.096c0 27.136 18.852 49.152 45.998 49.152h233.462c27.146 0 48.22-22.006 48.22-49.152v-83.968h-30.72v30.72h-266.24v-409.6h266.24v163.84h30.72v-217.088zM809.134 501.248l12.421-5.192c3.758-1.546 5.55-5.868 3.994-9.626l-8.479-20.429c-1.546-3.758-5.878-5.55-9.636-3.994l-12.421 5.13c-4.086-5.448-9.032-10.404-14.572-14.592l5.13-12.37c1.556-3.768-0.154-8.049-3.901-9.605l-20.449-8.458c-3.758-1.567-7.977 0.256-9.544 4.014l-5.12 12.38c-6.881-0.952-13.865-0.932-20.623 0.020l-5.181-12.421c-1.556-3.758-5.868-5.54-9.626-3.983l-20.439 8.468c-3.758 1.556-5.56 5.878-4.004 9.646l5.14 12.421c-5.458 4.096-10.414 9.032-14.602 14.572l-12.37-5.12c-3.768-1.556-8.049 0.143-9.605 3.912l-8.468 20.429c-1.556 3.768 0.256 8.008 4.035 9.554l12.37 5.12c-0.952 6.861-0.942 13.865 0.031 20.613l-12.431 5.171c-3.758 1.556-5.54 5.868-3.983 9.626l8.458 20.439c1.567 3.758 5.898 5.55 9.646 3.994l12.431-5.13c4.086 5.448 9.032 10.414 14.561 14.592l-5.12 12.37c-1.556 3.768 0.143 8.049 3.901 9.595l20.439 8.468c3.758 1.556 7.987-0.256 9.554-4.024l5.12-12.37c6.871 0.963 13.865 0.942 20.613-0.020l5.192 12.421c1.556 3.758 5.868 5.54 9.626 3.983l20.429-8.468c3.758-1.556 5.55-5.878 3.994-9.636l-5.13-12.431c5.448-4.086 10.414-9.032 14.592-14.561l12.38 5.12c3.758 1.556 8.028-0.154 9.595-3.932l8.468-20.429c1.556-3.768-0.256-7.997-4.035-9.554l-12.37-5.12c0.963-6.861 0.942-13.855-0.010-20.593zM558.193 683.52h49.162c3.389 0 6.144 6.84 6.144 10.24s-2.755 10.24-6.144 10.24h-49.162c-3.389 0-6.144-6.84-6.144-10.24s2.755-10.24 6.144-10.24zM605.307 194.468c0-13.573-11.003-24.576-24.576-24.576s-24.576 11.003-24.576 24.576c0 13.573 11.003 24.576 24.576 24.576 13.573 0 24.576-11.003 24.576-24.576zM773.038 511.488c0-20.359-16.505-36.864-36.864-36.864s-36.864 16.505-36.864 36.864c0 20.359 16.505 36.864 36.864 36.864 20.359 0 36.864-16.505 36.864-36.864z" />
<glyph unicode="&#xe621;" d="M689.787 784.282c-141.722 141.752-372.347 141.752-514.079 0-141.742-141.722-141.742-372.347 0-514.068 136.878-136.878 356.628-141.537 499.19-14.060l28.815-28.815c-7.178-18.381-3.42-40.018 11.428-54.856l152.054-152.064c19.999-19.999 52.419-19.999 72.407 0 19.999 19.978 19.999 52.398 0 72.397l-152.064 152.054c-14.838 14.848-36.495 18.606-54.866 11.428l-28.815 28.815c127.498 142.561 122.808 362.312-14.070 499.169zM219.146 313.641c-117.78 117.78-117.78 309.432 0 427.213s309.432 117.78 427.213 0 117.78-309.432 0-427.213c-117.78-117.77-309.432-117.77-427.213 0zM552.991 725.228c-66.386 66.386-173.65 65.853-240.046-0.532s-66.857-173.896-0.471-240.271l119.951-119.276 120.187 120.207c66.386 66.396 66.755 173.486 0.379 239.872zM432.855 503.501c-56.474 0-102.267 45.783-102.267 102.257 0 56.494 45.793 102.277 102.267 102.277 56.494 0 102.277-45.793 102.277-102.277 0-56.463-45.773-102.257-102.277-102.257zM430.93 331.94c42.609 0 82.831-9.288 118.518-25.692-27.822 31.181-70.892 51.292-119.368 51.292-49.152 0-92.733-20.695-120.494-52.634 36.393 17.244 77.619 27.034 121.344 27.034z" />
<glyph unicode="&#xe622;" d="M512-64c-282.317 0-512 229.683-512 512s229.683 512 512 512 512-229.683 512-512-229.683-512-512-512zM512 898.56c-248.443 0-450.56-202.117-450.56-450.56s202.117-450.56 450.56-450.56 450.56 202.117 450.56 450.56-202.117 450.56-450.56 450.56zM635.392 681.4c-98.355 98.386-258.427 98.386-356.803 0-98.386-98.365-98.386-258.437 0-356.803 94.996-95.007 247.532-98.243 346.481-9.759l19.999-19.999c-4.977-12.759-2.365-27.781 7.926-38.083l105.544-105.544c13.875-13.875 36.383-13.875 50.248 0 13.875 13.865 13.875 36.372 0 50.248l-105.533 105.533c-10.301 10.312-25.344 12.923-38.093 7.936l-19.988 19.999c88.484 98.959 85.228 251.484-9.779 346.47zM308.736 354.744c-81.746 81.736-81.746 214.774 0 296.52s214.774 81.746 296.53 0c81.746-81.746 81.746-214.784 0-296.52-81.756-81.756-214.784-81.756-296.53 0zM540.447 640.41c-46.080 46.080-120.525 45.711-166.615-0.369-46.080-46.080-46.408-120.699-0.328-166.769l83.251-82.78 83.415 83.425c46.1 46.090 46.346 120.422 0.276 166.492zM457.062 486.513c-39.199 0-70.984 31.775-70.984 70.973 0 39.219 31.785 70.994 70.984 70.994 39.219 0 70.984-31.785 70.984-70.994 0-39.188-31.764-70.973-70.984-70.973zM455.731 367.442c29.573 0 57.487-6.441 82.258-17.838-19.313 21.647-49.203 35.615-82.852 35.615-34.12 0-64.369-14.367-83.63-36.536 25.262 11.96 53.873 18.76 84.224 18.76z" />
<glyph unicode="&#xe623;" d="M528.046 557.496c0-39.203-31.78-70.984-70.984-70.984-39.203 0-70.984 31.78-70.984 70.984 0 39.203 31.78 70.984 70.984 70.984 39.203 0 70.984-31.78 70.984-70.984zM605.256 651.264c-81.746 81.746-214.774 81.746-296.53 0-81.746-81.746-81.746-214.784 0-296.52 81.746-81.746 214.774-81.746 296.53 0 81.756 81.736 81.756 214.764 0 296.52zM455.731 367.442c-30.351 0-58.962-6.799-84.224-18.77 19.261 22.17 49.51 36.536 83.63 36.536 33.649 0 63.539-13.957 82.852-35.615-24.771 11.407-52.685 17.848-82.258 17.848zM540.191 473.917l-83.415-83.425-83.251 82.78c-46.080 46.070-45.763 120.689 0.328 166.769 46.080 46.080 120.535 46.449 166.615 0.369 46.049-46.070 45.804-120.402-0.276-166.492zM512 960c-282.767 0-512-229.233-512-512s229.233-512 512-512 512 229.233 512 512-229.233 512-512 512zM808.786 151.224c-13.865-13.875-36.372-13.875-50.248 0l-105.533 105.533c-10.301 10.301-12.913 25.324-7.926 38.083l-19.999 19.999c-98.949-88.484-251.484-85.248-346.481 9.759-98.386 98.355-98.386 258.437 0 356.803 98.365 98.386 258.437 98.386 356.803 0 95.007-94.986 98.273-247.511 9.779-346.46l19.988-19.999c12.749 4.977 27.791 2.365 38.093-7.936l105.544-105.533c13.865-13.885 13.865-36.393-0.020-50.248z" />
<glyph unicode="&#xe624;" d="M447.406 341.217l-129.905-129.894c-47.258-47.237-127.529-43.878-178.934 7.516-51.405 51.415-54.784 131.656-7.516 178.944l147.19 147.19c47.258 47.258 127.529 43.878 178.934-7.516 21.883-21.883 34.97-48.978 39.24-76.544 19.046 1.987 37.007 9.789 50.985 23.757l5.417 5.417c-8.684 32.993-25.979 64.584-52.214 90.798-75.356 75.366-194.601 78.735-265.81 7.516l-147.18-147.18c-71.219-71.199-67.84-190.464 7.516-265.82s194.601-78.725 265.82-7.516l147.18 147.18c8.335 8.335 15.575 17.398 21.873 26.921-27.003-5.55-55.040-5.663-82.596-0.768zM486.42 840.018l-147.2-147.19c-8.356-8.356-15.585-17.418-21.893-26.952 27.003 5.53 55.050 5.704 82.586 0.768l129.935 129.935c47.247 47.258 127.529 43.878 178.934-7.526s54.784-131.666 7.516-178.924l-147.18-147.19c-47.258-47.258-127.519-43.889-178.934 7.516-21.883 21.883-34.97 48.998-39.24 76.564-19.046-1.976-37.018-9.82-50.985-23.777l-5.417-5.417c8.684-33.004 25.979-64.584 52.214-90.808 75.356-75.356 194.601-78.725 265.81-7.516l147.169 147.18c71.219 71.219 67.84 190.454-7.506 265.81s-194.601 78.746-265.81 7.526zM788.49 359.823c-113.121 0-204.8-91.699-204.8-204.8s91.679-204.82 204.8-204.82c113.111 0 204.79 91.72 204.79 204.82s-91.679 204.8-204.79 204.8zM908.81 112.824h-75.745v-76.063c0-23.921-19.395-43.284-43.305-43.284s-43.305 19.364-43.305 43.284v76.063h-75.756c-23.89 0-43.284 19.405-43.284 43.305s19.395 43.295 43.284 43.295h75.756v75.459c0 23.9 19.395 43.284 43.305 43.284s43.305-19.384 43.305-43.284v-75.459h75.745c23.91 0 43.305-19.395 43.305-43.295-0.010-23.921-19.395-43.305-43.305-43.305z" />
<glyph unicode="&#xe625;" d="M512-64c-282.317 0-512 229.683-512 512s229.683 512 512 512 512-229.683 512-512-229.683-512-512-512zM512 898.56c-248.443 0-450.56-202.117-450.56-450.56s202.117-450.56 450.56-450.56 450.56 202.117 450.56 450.56-202.117 450.56-450.56 450.56zM471.532 390.175l-83.405-83.405c-30.331-30.331-81.879-28.18-114.883 4.833-33.004 33.014-35.174 84.531-4.823 114.883l94.505 94.505c30.341 30.341 81.879 28.17 114.883-4.833 14.060-14.049 22.446-31.437 25.19-49.142 12.227 1.28 23.757 6.287 32.727 15.247l3.482 3.482c-5.571 21.187-16.681 41.462-33.526 58.296-48.374 48.394-124.938 50.555-170.66 4.823l-94.495-94.495c-45.722-45.722-43.551-122.276 4.823-170.67 48.384-48.384 124.948-50.545 170.67-4.823l94.495 94.495c5.345 5.356 10.004 11.172 14.039 17.285-17.326-3.553-35.328-3.635-53.023-0.481zM496.579 710.42l-94.505-94.505c-5.356-5.366-10.004-11.182-14.060-17.306 17.336 3.553 35.348 3.656 53.023 0.492l83.415 83.415c30.341 30.341 81.879 28.17 114.883-4.833 33.014-33.004 35.185-84.531 4.833-114.872l-94.495-94.505c-30.351-30.341-81.879-28.17-114.883 4.823-14.049 14.060-22.456 31.457-25.19 49.162-12.227-1.27-23.767-6.308-32.737-15.268l-3.471-3.482c5.571-21.187 16.671-41.462 33.516-58.296 48.384-48.394 124.938-50.555 170.66-4.833l94.495 94.495c45.732 45.732 43.561 122.276-4.823 170.67-48.374 48.384-124.938 50.565-170.66 4.844zM690.524 402.115c-72.632 0-131.492-58.88-131.492-131.492s58.86-131.502 131.492-131.502c72.622 0 131.492 58.89 131.492 131.502s-58.88 131.492-131.492 131.492zM767.775 243.528h-48.63v-48.845c0-15.36-12.452-27.791-27.802-27.791s-27.802 12.431-27.802 27.791v48.845h-48.64c-15.34 0-27.791 12.452-27.791 27.802s12.452 27.802 27.791 27.802h48.64v48.435c0 15.35 12.452 27.791 27.802 27.791s27.802-12.442 27.802-27.791v-48.435h48.63c15.35 0 27.812-12.452 27.812-27.802-0.020-15.35-12.462-27.802-27.812-27.802z" />
<glyph unicode="&#xe626;" d="M512 960c-282.767 0-512-229.233-512-512s229.233-512 512-512 512 229.233 512 512-229.233 512-512 512zM432.794 605.676l94.505 94.505c45.722 45.722 122.276 43.54 170.66-4.833 48.384-48.384 50.555-124.938 4.823-170.67l-94.495-94.495c-45.722-45.722-122.276-43.561-170.66 4.833-16.845 16.835-27.945 37.11-33.516 58.296l3.471 3.482c8.97 8.96 20.511 13.998 32.737 15.268 2.744-17.705 11.141-35.103 25.19-49.162 33.014-33.004 84.531-35.174 114.883-4.823l94.495 94.505c30.351 30.341 28.18 81.869-4.833 114.872-33.004 33.004-84.541 35.174-114.883 4.833l-83.415-83.415c-17.684 3.164-35.686 3.052-53.023-0.492 4.055 6.113 8.694 11.93 14.060 17.295zM541.235 363.131l-94.495-94.495c-45.722-45.722-122.286-43.561-170.67 4.823-48.384 48.394-50.555 124.948-4.823 170.67l94.495 94.495c45.722 45.722 122.276 43.561 170.66-4.823 16.855-16.835 27.955-37.11 33.526-58.296l-3.482-3.482c-8.97-8.96-20.5-13.978-32.727-15.247-2.755 17.705-11.141 35.092-25.19 49.142-33.004 33.004-84.541 35.174-114.883 4.833l-94.505-94.505c-30.341-30.351-28.17-81.869 4.823-114.883 33.004-33.014 84.541-35.164 114.883-4.833l83.405 83.405c17.695-3.154 35.697-3.072 53.033 0.492-4.045-6.124-8.694-11.94-14.049-17.295zM721.244 128.881c-72.632 0-131.492 58.89-131.492 131.502s58.86 131.492 131.492 131.492c72.622 0 131.492-58.88 131.492-131.492s-58.88-131.502-131.492-131.502zM747.52 284.16v53.166c0 15.35-10.25 27.791-25.6 27.791s-25.6-12.442-25.6-27.791v-53.166h-50.698c-15.34 0-27.791-10.25-27.791-25.6s12.452-25.6 27.791-25.6h50.698v-48.507c0-15.36 10.25-27.791 25.6-27.791s25.6 12.431 25.6 27.791v48.507h50.975c15.35 0 27.802 10.25 27.812 25.6 0 15.35-12.462 25.6-27.812 25.6h-50.975z" />
<glyph unicode="&#xe627;" d="M895.416 495.462c-5.499 20.019-56.617 21.74-77.179 14.889-74.793-24.873-149.596-49.756-224.41-74.639l-259.656 103.69-27.402-29.225 111.124-133.427c-71.629-24.76-202.813-70.492-226.621-78.387-20.49-6.82 132.465-28.518 167.526-22.702 0 0 269.445 87.88 388.557 127.519 30.597 10.179 61.225 20.357 91.873 30.556 20.48 6.82 62.147 40.028 56.187 61.727zM148.818 393.277l-20.818-19.22 55.194-64.399 79.995 28.18zM962.56 898.56h-901.12c-33.925 0-61.44-27.515-61.44-61.44v-778.24c0-33.925 27.515-61.44 61.44-61.44h901.12c33.935 0 61.44 27.525 61.44 61.44v778.24c0 33.935-27.505 61.44-61.44 61.44zM808.96 857.6c22.579 0 40.96-18.371 40.96-40.96s-18.381-40.96-40.96-40.96-40.96 18.371-40.96 40.96 18.381 40.96 40.96 40.96zM696.32 857.6c22.579 0 40.96-18.371 40.96-40.96s-18.381-40.96-40.96-40.96-40.96 18.371-40.96 40.96 18.381 40.96 40.96 40.96zM962.56 58.88h-901.12v675.84h901.12v-675.84zM921.6 775.68c-22.579 0-40.96 18.371-40.96 40.96s18.381 40.96 40.96 40.96 40.96-18.371 40.96-40.96-18.381-40.96-40.96-40.96z" />
<glyph unicode="&#xe628;" d="M512-64c-282.317 0-512 229.683-512 512s229.683 512 512 512 512-229.683 512-512-229.683-512-512-512zM512 898.56c-248.443 0-450.56-202.117-450.56-450.56s202.117-450.56 450.56-450.56 450.56 202.117 450.56 450.56-202.117 450.56-450.56 450.56zM742.052 476.477c-3.297 12.012-33.966 13.046-46.305 8.929-44.882-14.92-89.764-29.86-134.636-44.78l-155.812 62.218-16.435-17.541 66.673-80.056c-42.977-14.858-121.682-42.291-135.967-47.032-12.298-4.096 79.473-17.121 100.516-13.619 0 0 161.659 52.716 233.144 76.513 18.36 6.113 36.731 12.206 55.122 18.34 12.278 4.086 37.274 24.013 33.7 37.028zM294.093 415.171l-12.493-11.53 33.116-38.636 47.995 16.896zM782.336 718.336h-540.672c-20.357 0-36.864-16.507-36.864-36.864v-466.944c0-20.347 16.507-36.874 36.864-36.874h540.672c20.357 0 36.864 16.517 36.864 36.874v466.944c0 20.367-16.497 36.864-36.864 36.864zM690.176 693.76c13.537 0 24.566-11.018 24.566-24.576s-11.028-24.576-24.566-24.576c-13.548 0-24.576 11.018-24.576 24.576s11.028 24.576 24.576 24.576zM622.592 693.76c13.548 0 24.576-11.018 24.576-24.576s-11.028-24.576-24.576-24.576-24.576 11.018-24.576 24.576 11.028 24.576 24.576 24.576zM782.336 214.528h-540.672v405.504h540.672v-405.504zM757.76 644.608c-13.548 0-24.576 11.018-24.576 24.576s11.028 24.576 24.576 24.576 24.576-11.018 24.576-24.576-11.028-24.576-24.576-24.576z" />
<glyph unicode="&#xe629;" d="M266.24 212.48h532.48v409.6h-532.48v-409.6zM425.779 502.845l155.802-62.218c44.882 14.93 89.764 29.86 134.636 44.78 12.339 4.116 43.008 3.082 46.305-8.929 3.584-13.015-21.422-32.942-33.71-37.038-18.391-6.124-36.762-12.227-55.122-18.34-71.475-23.788-233.144-76.513-233.144-76.513-21.043-3.502-112.814 9.523-100.516 13.619 14.285 4.741 93 32.174 135.967 47.032l-66.673 80.056 16.456 17.551zM314.573 415.171l68.628-33.27-48.005-16.896-33.116 38.636 12.493 11.53zM512 960c-282.767 0-512-229.233-512-512s229.233-512 512-512 512 229.233 512 512-229.233 512-512 512zM839.68 208.394c0-20.367-16.497-36.874-36.864-36.874h-540.672c-20.357 0-36.864 16.507-36.864 36.874v468.972c0 20.367 16.507 36.874 36.864 36.874h540.672c20.357 0 36.864-16.507 36.864-36.874v-468.972zM667.648 669.184c0-13.573-11.003-24.576-24.576-24.576s-24.576 11.003-24.576 24.576c0 13.573 11.003 24.576 24.576 24.576 13.573 0 24.576-11.003 24.576-24.576zM710.656 644.608c13.537 0 24.566 11.018 24.566 24.576s-11.018 24.576-24.566 24.576c-13.548 0-24.576-11.018-24.576-24.576s11.028-24.576 24.576-24.576zM802.816 669.184c0-13.573-11.003-24.576-24.576-24.576s-24.576 11.003-24.576 24.576c0 13.573 11.003 24.576 24.576 24.576 13.573 0 24.576-11.003 24.576-24.576z" />
<glyph unicode="&#xe62a;" d="M679.537 784.271c-141.722 141.742-372.326 141.742-514.068 0-141.742-141.711-141.742-372.326 0-514.048 136.868-136.878 356.608-141.537 499.18-14.060l28.805-28.805c-7.178-18.401-3.42-40.018 11.397-54.835l152.084-152.084c19.999-19.999 52.419-19.999 72.387 0 19.999 19.958 19.999 52.378 0 72.376l-152.074 152.064c-14.828 14.817-36.485 18.575-54.845 11.397l-28.805 28.836c127.529 142.572 122.829 362.312-14.060 499.159zM208.906 313.641c-117.78 117.78-117.78 309.422 0 427.203 117.78 117.791 309.432 117.78 427.213 0s117.78-309.422 0-427.203-309.432-117.78-427.213 0zM395.459 450.693l-31.508 31.508 87.030 87.040c41.011-24.136 94.7-18.749 129.884 16.404 41.667 41.677 41.667 109.558 0 151.245-41.697 41.687-109.568 41.687-151.255 0-35.154-35.164-40.53-88.852-16.415-129.853l-154.266-154.235c-6.963-6.963-6.963-18.248 0-25.201l12.605-12.585c6.963-6.984 18.227-6.984 25.19 0l29.409 29.389 31.519-31.508c6.963-6.984 18.248-6.963 25.201 0l12.605 12.595c6.963 6.963 6.963 18.237 0 25.201zM454.81 711.69c27.802 27.791 73.032 27.791 100.813 0 27.802-27.812 27.802-73.021 0-100.823-27.791-27.791-73.011-27.812-100.813 0-27.812 27.791-27.812 73.011 0 100.823zM297.974 359.537l10.68-36.598 9.718 34.017c1.044 3.564 1.812 5.98 2.314 7.281s1.444 2.54 2.816 3.717c1.372 1.167 3.267 1.782 5.673 1.782 2.437 0 4.352-0.614 5.734-1.782 1.382-1.178 2.345-2.458 2.908-3.84 0.563-1.393 1.341-3.758 2.345-7.158l9.718-34.017 10.803 36.598c0.717 2.642 1.3 4.536 1.741 5.734s1.178 2.232 2.222 3.133 2.54 1.341 4.495 1.341c1.956 0 3.656-0.655 5.1-2.017 1.444-1.382 2.161-2.959 2.161-4.823 0-1.679-0.625-4.219-1.864-7.619l-13.384-39.24c-1.157-3.297-2.058-5.724-2.703-7.178s-1.649-2.775-3.031-3.983c-1.382-1.147-3.267-1.741-5.673-1.741-2.478 0-4.434 0.645-5.847 1.884-1.413 1.219-2.468 2.775-3.154 4.536-0.686 1.802-1.423 4.137-2.222 7.045l-9.359 31.918-9.062-31.918c-1.198-4.465-2.499-7.803-3.901-10.035-1.403-2.263-3.86-3.379-7.383-3.379-1.802 0-3.328 0.338-4.588 1.055s-2.314 1.7-3.154 3-1.577 2.826-2.222 4.618c-0.645 1.782-1.137 3.195-1.495 4.229l-13.261 39.24c-1.321 3.676-1.976 6.216-1.976 7.619 0 1.761 0.696 3.338 2.099 4.741 1.403 1.403 3.123 2.099 5.161 2.099 2.724 0 4.557-0.768 5.519-2.324 0.963-1.577 1.987-4.209 3.072-7.936zM397.865 359.537l10.68-36.598 9.718 34.017c1.044 3.564 1.812 5.98 2.314 7.281s1.444 2.54 2.816 3.717c1.372 1.167 3.267 1.782 5.673 1.782 2.437 0 4.352-0.614 5.734-1.782 1.382-1.178 2.345-2.458 2.908-3.84 0.563-1.393 1.341-3.758 2.345-7.158l9.718-34.017 10.803 36.598c0.717 2.642 1.3 4.536 1.741 5.734 0.44 1.198 1.178 2.232 2.222 3.133 1.044 0.901 2.54 1.341 4.495 1.341 1.956 0 3.656-0.655 5.1-2.017 1.444-1.382 2.161-2.959 2.161-4.823 0-1.679-0.625-4.219-1.864-7.619l-13.384-39.24c-1.157-3.297-2.058-5.724-2.703-7.178-0.645-1.485-1.649-2.775-3.031-3.983-1.382-1.147-3.267-1.741-5.673-1.741-2.478 0-4.434 0.645-5.847 1.884-1.413 1.219-2.468 2.775-3.154 4.536-0.686 1.802-1.423 4.137-2.222 7.045l-9.359 31.898-9.062-31.918c-1.198-4.454-2.499-7.793-3.901-10.045-1.403-2.243-3.86-3.379-7.383-3.379-1.802 0-3.328 0.338-4.588 1.065s-2.314 1.7-3.154 3c-0.84 1.3-1.577 2.816-2.222 4.618-0.645 1.782-1.137 3.205-1.495 4.219l-13.261 39.24c-1.321 3.676-1.976 6.216-1.976 7.619 0 1.761 0.696 3.338 2.099 4.741 1.403 1.413 3.123 2.099 5.161 2.099 2.724 0 4.557-0.758 5.519-2.324 0.963-1.546 1.997-4.178 3.072-7.905zM497.766 359.537l10.68-36.598 9.718 34.017c1.065 3.564 1.823 5.98 2.335 7.281 0.502 1.3 1.454 2.54 2.806 3.717 1.362 1.167 3.256 1.782 5.683 1.782s4.352-0.614 5.734-1.782c1.393-1.178 2.345-2.458 2.908-3.84 0.563-1.393 1.341-3.758 2.345-7.158l9.718-34.017 10.803 36.598c0.717 2.642 1.3 4.536 1.741 5.734 0.44 1.198 1.178 2.232 2.232 3.133s2.54 1.341 4.485 1.341 3.645-0.655 5.1-2.017c1.454-1.382 2.161-2.959 2.161-4.823 0-1.679-0.635-4.219-1.874-7.619l-13.394-39.24c-1.147-3.297-2.048-5.724-2.703-7.178-0.645-1.485-1.638-2.775-3.021-3.983-1.403-1.147-3.277-1.741-5.693-1.741-2.478 0-4.454 0.645-5.827 1.884-1.434 1.219-2.478 2.775-3.174 4.536-0.666 1.802-1.434 4.137-2.232 7.045l-9.359 31.918-9.062-31.918c-1.198-4.465-2.499-7.803-3.891-10.035-1.403-2.263-3.86-3.379-7.383-3.379-1.802 0-3.328 0.338-4.588 1.055s-2.314 1.7-3.154 3-1.577 2.826-2.222 4.618c-0.645 1.782-1.137 3.195-1.495 4.229l-13.261 39.24c-1.321 3.676-1.976 6.216-1.976 7.619 0 1.761 0.696 3.338 2.099 4.741 1.403 1.403 3.123 2.099 5.161 2.099 2.724 0 4.557-0.768 5.519-2.324 0.973-1.577 2.007-4.209 3.082-7.936z" />
<glyph unicode="&#xe62b;" d="M512-64c-282.317 0-512 229.683-512 512s229.683 512 512 512c282.317 0 512-229.683 512-512 0-282.317-229.683-512-512-512zM512 898.56c-248.443 0-450.56-202.117-450.56-450.56s202.117-450.56 450.56-450.56c248.443 0 450.56 202.117 450.56 450.56 0 248.443-202.117 450.56-450.56 450.56zM635.402 681.4c-98.355 98.386-258.427 98.386-356.813 0-98.386-98.355-98.386-258.437 0-356.823 94.996-94.986 247.521-98.243 346.481-9.738l19.999-19.988c-4.987-12.78-2.365-27.781 7.905-38.072l105.564-105.564c13.875-13.875 36.383-13.875 50.237 0 13.875 13.865 13.875 36.362 0 50.227l-105.544 105.554c-10.291 10.281-25.334 12.902-38.072 7.905l-19.999 20.019c88.494 98.97 85.248 251.494-9.759 346.481zM308.736 354.744c-81.756 81.736-81.756 214.764 0 296.53 81.746 81.756 214.774 81.746 296.53 0 81.746-81.756 81.746-214.784 0-296.53-81.756-81.766-214.774-81.766-296.53 0zM438.221 449.874l-21.873 21.862 60.406 60.416c28.457-16.753 65.72-13.015 90.143 11.387 28.918 28.928 28.918 76.042 0 104.98-28.938 28.928-76.042 28.928-104.98 0-24.402-24.412-28.129-61.676-11.397-90.132l-107.059-107.069c-4.833-4.833-4.833-12.657 0-17.49l8.745-8.724c4.833-4.854 12.646-4.854 17.49 0l20.419 20.378 21.873-21.862c4.833-4.864 12.667-4.844 17.49 0l8.745 8.745c4.844 4.833 4.844 12.667 0 17.51zM479.416 631.020c19.302 19.292 50.688 19.292 69.97 0 19.313-19.302 19.313-50.678 0-69.98-19.282-19.292-50.657-19.302-69.97 0-19.292 19.292-19.292 50.678 0 69.98zM370.565 386.591l7.414-25.385 6.748 23.613c0.727 2.468 1.26 4.147 1.608 5.048 0.348 0.911 1.004 1.772 1.956 2.58 0.952 0.819 2.273 1.239 3.942 1.239 1.69 0 3.021-0.42 3.983-1.239 0.952-0.809 1.628-1.7 2.017-2.662s0.932-2.621 1.628-4.966l6.748-23.613 7.496 25.385c0.492 1.833 0.901 3.154 1.208 3.994 0.307 0.819 0.819 1.536 1.546 2.161 0.727 0.645 1.761 0.942 3.123 0.942 1.362 0 2.54-0.461 3.543-1.403 1.004-0.973 1.495-2.058 1.495-3.359 0-1.147-0.43-2.918-1.29-5.284l-9.288-27.238c-0.809-2.294-1.434-3.973-1.874-4.977-0.451-1.024-1.147-1.925-2.109-2.775-0.963-0.788-2.263-1.208-3.942-1.208-1.71 0-3.072 0.461-4.055 1.321-0.983 0.84-1.71 1.925-2.191 3.144-0.471 1.26-0.983 2.877-1.536 4.905l-6.502 22.149-6.287-22.149c-0.829-3.103-1.731-5.417-2.703-6.973-0.973-1.567-2.683-2.345-5.12-2.345-1.26 0-2.314 0.236-3.185 0.727-0.87 0.492-1.608 1.178-2.191 2.079-0.584 0.911-1.096 1.966-1.536 3.205-0.451 1.239-0.788 2.202-1.044 2.939l-9.206 27.218c-0.911 2.56-1.372 4.321-1.372 5.304 0 1.219 0.492 2.324 1.464 3.277 0.973 0.983 2.171 1.464 3.584 1.464 1.894 0 3.164-0.522 3.84-1.597s1.331-2.939 2.089-5.519zM439.89 386.591l7.414-25.385 6.748 23.613c0.727 2.468 1.26 4.147 1.608 5.048 0.348 0.911 1.004 1.772 1.956 2.58 0.952 0.819 2.273 1.239 3.942 1.239 1.69 0 3.021-0.42 3.983-1.239 0.963-0.809 1.628-1.7 2.017-2.662 0.389-0.963 0.932-2.621 1.628-4.966l6.748-23.613 7.496 25.385c0.492 1.833 0.901 3.154 1.208 3.994 0.307 0.819 0.819 1.536 1.546 2.161 0.727 0.645 1.761 0.942 3.123 0.942 1.362 0 2.54-0.461 3.543-1.403 1.004-0.973 1.495-2.058 1.495-3.359 0-1.147-0.43-2.918-1.29-5.284l-9.288-27.238c-0.799-2.294-1.434-3.973-1.874-4.977-0.451-1.024-1.147-1.925-2.109-2.775-0.963-0.788-2.263-1.208-3.932-1.208-1.72 0-3.082 0.461-4.055 1.321-0.983 0.84-1.71 1.925-2.191 3.144-0.471 1.26-0.983 2.877-1.536 4.905l-6.502 22.149-6.287-22.149c-0.829-3.103-1.731-5.417-2.714-6.994-0.973-1.546-2.683-2.345-5.12-2.345-1.26 0-2.314 0.225-3.185 0.727-0.87 0.512-1.608 1.178-2.191 2.089-0.584 0.901-1.096 1.935-1.546 3.205-0.44 1.239-0.788 2.222-1.034 2.939l-9.206 27.228c-0.911 2.55-1.372 4.332-1.372 5.294 0 1.219 0.481 2.335 1.464 3.297 0.973 0.983 2.161 1.464 3.584 1.464 1.884 0 3.164-0.543 3.83-1.608 0.635-1.085 1.362-2.939 2.099-5.519zM509.235 386.591l7.414-25.385 6.748 23.613c0.717 2.468 1.26 4.147 1.618 5.048 0.338 0.911 1.004 1.772 1.935 2.58 0.942 0.819 2.263 1.239 3.942 1.239s3.021-0.42 3.983-1.239c0.973-0.809 1.638-1.7 2.017-2.662s0.942-2.621 1.618-4.966l6.748-23.613 7.485 25.385c0.502 1.833 0.901 3.154 1.198 3.994 0.307 0.819 0.819 1.536 1.546 2.161 0.727 0.645 1.761 0.942 3.133 0.942 1.341 0 2.519-0.461 3.543-1.403 1.004-0.973 1.495-2.058 1.495-3.359 0-1.147-0.43-2.918-1.29-5.284l-9.298-27.238c-0.799-2.294-1.423-3.973-1.874-4.977-0.451-1.024-1.137-1.925-2.099-2.775-0.973-0.788-2.273-1.208-3.953-1.208-1.72 0-3.103 0.461-4.055 1.321-1.004 0.84-1.731 1.925-2.202 3.144-0.471 1.26-1.014 2.877-1.546 4.905l-6.502 22.149-6.277-22.149c-0.84-3.103-1.741-5.417-2.703-6.973-0.983-1.567-2.683-2.345-5.13-2.345-1.249 0-2.304 0.236-3.185 0.727-0.87 0.492-1.608 1.178-2.191 2.079-0.584 0.911-1.096 1.966-1.536 3.205-0.451 1.239-0.788 2.202-1.044 2.939l-9.206 27.218c-0.911 2.56-1.372 4.321-1.372 5.304 0 1.219 0.481 2.324 1.454 3.277 0.973 0.963 2.171 1.464 3.584 1.464 1.894 0 3.174-0.522 3.83-1.597 0.707-1.085 1.434-2.939 2.171-5.519z" />
<glyph unicode="&#xe62c;" d="M512 960c-282.767 0-512-229.233-512-512s229.233-512 512-512 512 229.233 512 512-229.233 512-512 512zM808.786 151.214c-13.865-13.875-36.362-13.875-50.237 0l-105.574 105.564c-10.281 10.291-12.892 25.303-7.905 38.072l-19.999 19.988c-98.959-88.494-251.484-85.248-346.491 9.759-98.386 98.365-98.386 258.447 0 356.813 98.386 98.386 258.458 98.386 356.833 0 95.007-94.986 98.273-247.511 9.759-346.47l19.999-20.019c12.739 4.987 27.771 2.376 38.072-7.905l105.554-105.554c13.885-13.896 13.885-36.393-0.010-50.248zM479.416 631.030c-19.302-19.302-19.302-50.698 0-69.99 19.292-19.302 50.678-19.292 69.97 0 19.302 19.302 19.302 50.688 0 69.99-19.272 19.282-50.668 19.282-69.97 0zM605.266 651.264c-81.756 81.756-214.784 81.756-296.54 0-81.756-81.756-81.756-214.784 0-296.53s214.784-81.746 296.54 0c81.756 81.746 81.756 214.774 0 296.53zM423.7 383.631l-9.288-27.228c-0.809-2.294-1.434-3.973-1.884-4.987-0.451-1.014-1.137-1.925-2.109-2.765-0.952-0.799-2.263-1.208-3.932-1.208-1.72 0-3.072 0.451-4.055 1.311-0.983 0.84-1.71 1.925-2.191 3.154-0.471 1.249-0.983 2.867-1.536 4.884l-6.502 22.159-6.287-22.159c-0.829-3.092-1.731-5.407-2.703-6.963-0.973-1.567-2.683-2.345-5.12-2.345-1.249 0-2.314 0.236-3.185 0.727s-1.608 1.178-2.191 2.079-1.096 1.956-1.536 3.205c-0.451 1.229-0.788 2.212-1.044 2.929l-9.206 27.238c-0.911 2.56-1.372 4.321-1.372 5.294 0 1.219 0.492 2.324 1.464 3.287 0.973 0.973 2.171 1.464 3.584 1.464 1.894 0 3.164-0.543 3.84-1.608 0.666-1.085 1.382-2.918 2.13-5.499l7.414-25.395 6.748 23.613c0.727 2.468 1.26 4.147 1.608 5.048 0.348 0.911 1.004 1.772 1.956 2.58 0.952 0.819 2.273 1.239 3.942 1.239 1.69 0 3.021-0.42 3.983-1.239 0.963-0.809 1.628-1.7 2.017-2.662 0.389-0.973 0.932-2.611 1.628-4.966l6.738-23.613 7.496 25.395c0.502 1.833 0.901 3.154 1.208 3.983s0.819 1.546 1.536 2.171 1.761 0.932 3.123 0.932c1.362 0 2.54-0.461 3.543-1.403 1.004-0.963 1.495-2.058 1.495-3.348-0.020-1.178-0.451-2.949-1.311-5.304zM493.046 383.631l-9.298-27.228c-0.809-2.294-1.434-3.973-1.874-4.987-0.451-1.034-1.147-1.925-2.109-2.765-0.963-0.799-2.273-1.208-3.932-1.208-1.72 0-3.082 0.451-4.065 1.311-0.973 0.84-1.71 1.925-2.191 3.154-0.471 1.249-0.983 2.867-1.536 4.884l-6.492 22.149-6.287-22.149c-0.84-3.092-1.731-5.407-2.714-6.984-0.973-1.546-2.683-2.345-5.12-2.345-1.249 0-2.314 0.225-3.185 0.727s-1.608 1.178-2.181 2.079c-0.584 0.911-1.096 1.956-1.546 3.205-0.451 1.239-0.788 2.222-1.044 2.929l-9.196 27.238c-0.922 2.55-1.372 4.311-1.372 5.294 0 1.219 0.481 2.314 1.464 3.287 0.973 0.983 2.161 1.454 3.584 1.454 1.894 0 3.164-0.522 3.84-1.608 0.666-1.065 1.382-2.898 2.13-5.478l7.414-25.395 6.748 23.613c0.717 2.468 1.26 4.147 1.608 5.048 0.348 0.911 1.004 1.772 1.956 2.58 0.952 0.819 2.263 1.239 3.932 1.239 1.7 0 3.021-0.42 3.983-1.239 0.963-0.809 1.628-1.7 2.017-2.662 0.389-0.973 0.932-2.611 1.628-4.966l6.748-23.613 7.496 25.395c0.492 1.833 0.901 3.154 1.208 3.983s0.819 1.546 1.546 2.171c0.717 0.625 1.761 0.932 3.123 0.932 1.352 0 2.54-0.461 3.543-1.403 1.004-0.963 1.495-2.058 1.495-3.348-0.031-1.167-0.461-2.939-1.321-5.294zM562.381 383.631l-9.298-27.228c-0.788-2.294-1.423-3.973-1.874-4.987-0.451-1.034-1.137-1.925-2.099-2.765-0.973-0.799-2.273-1.208-3.953-1.208-1.72 0-3.082 0.451-4.045 1.311-1.004 0.84-1.72 1.925-2.202 3.154-0.471 1.249-1.004 2.867-1.546 4.884l-6.502 22.159-6.287-22.159c-0.829-3.092-1.731-5.407-2.693-6.963-0.983-1.567-2.683-2.345-5.13-2.345-1.249 0-2.304 0.236-3.185 0.727-0.87 0.492-1.608 1.178-2.191 2.079s-1.096 1.956-1.536 3.205c-0.451 1.229-0.788 2.212-1.044 2.929l-9.206 27.238c-0.911 2.56-1.372 4.321-1.372 5.294 0 1.219 0.492 2.324 1.464 3.287s2.161 1.464 3.584 1.464c1.894 0 3.164-0.543 3.83-1.608 0.676-1.085 1.403-2.918 2.14-5.499l7.414-25.395 6.748 23.613c0.737 2.468 1.26 4.147 1.618 5.048 0.338 0.911 1.004 1.772 1.946 2.58 0.942 0.819 2.263 1.239 3.942 1.239s3.021-0.42 3.983-1.239c0.963-0.809 1.628-1.7 2.017-2.662 0.389-0.973 0.932-2.611 1.618-4.966l6.748-23.613 7.485 25.395c0.502 1.833 0.911 3.154 1.208 3.983 0.307 0.829 0.819 1.546 1.546 2.171s1.761 0.932 3.123 0.932c1.352 0 2.529-0.461 3.543-1.403 1.004-0.963 1.495-2.058 1.495-3.348 0.010-1.178-0.43-2.949-1.29-5.304zM566.907 543.539c-24.422-24.392-61.686-28.14-90.143-11.387l-60.406-60.416 21.873-21.862c4.833-4.844 4.833-12.657 0-17.5l-8.745-8.745c-4.823-4.833-12.657-4.854-17.49 0l-21.883 21.862-20.419-20.388c-4.833-4.844-12.657-4.844-17.49 0l-8.745 8.735c-4.833 4.833-4.833 12.657 0 17.49l107.080 107.059c-16.742 28.457-13.015 65.72 11.397 90.132 28.938 28.938 76.042 28.938 104.98 0 28.928-28.938 28.928-76.052-0.010-104.98z" />
<glyph unicode="&#xe62d;" d="M812.585 836.198c-165.97 165.96-434.135 164.618-600.105-1.341s-167.137-434.739-1.198-600.678l299.889-298.179 300.472 300.524c165.98 165.98 166.892 433.695 0.942 599.675zM511.969 174.019c-200.735 0-363.489 162.734-363.489 363.489 0 200.806 162.765 363.571 363.489 363.571 200.796 0 363.551-162.765 363.551-363.571-0.072-200.755-162.755-363.489-363.551-363.489zM491.776 796.078c15.534 13.302 42.803 8.837 51.61-10.138 17.859-44.247 35.4-88.637 53.146-132.915 0.307-1.495 1.71-2.017 3.103-2.017 44.411-3.031 88.801-6.646 133.222-9.83 12.728-0.266 25.364-7.281 31.13-18.852 7.127-12.995 4.731-31.017-6.932-40.632-35.82-29.45-71.311-59.3-107.039-88.842-1.004-0.85-1.997-1.731-2.673-2.857 10.097-43.94 21.402-87.665 31.969-131.512 7.997-21.996-10.752-47.933-34.304-46.203-8.131 0.102-15.227 4.526-21.709 8.97-35.021 22.129-70.062 44.268-105.124 66.365-2.99 1.833-5.806 4.127-9.165 5.202-39.741-23.921-78.868-48.937-118.508-73.073-10.895-6.502-25.375-6.4-36.076 0.461-11.295 6.717-18.227 20.572-15.575 33.638 11.418 46.868 24.269 93.553 35.174 140.513-32.205 27.72-64.891 54.866-97.249 82.391-7.322 5.949-15.278 12.155-18.452 21.402-7.772 18.586 4.516 42.803 24.883 45.701 48.456 4.096 97.249 5.816 145.582 10.26 16.722 39.946 32.799 80.21 49.336 120.279 3.082 8.018 6.625 16.343 13.65 21.688z" />
<glyph unicode="&#xe62e;" d="M512-64c-282.317 0-512 229.683-512 512s229.683 512 512 512c282.317 0 512-229.683 512-512 0-282.317-229.683-512-512-512zM512 898.56c-248.443 0-450.56-202.117-450.56-450.56s202.117-450.56 450.56-450.56c248.443 0 450.56 202.117 450.56 450.56 0 248.443-202.117 450.56-450.56 450.56zM692.337 680.919c-99.574 99.574-260.475 98.775-360.059-0.809s-100.28-260.833-0.717-360.417l179.948-178.893 180.275 180.306c99.584 99.594 100.127 260.229 0.553 359.813zM511.99 283.607c-120.443 0-218.102 97.638-218.102 218.092 0 120.484 97.659 218.143 218.102 218.143 120.474 0 218.122-97.659 218.122-218.143-0.041-120.453-97.649-218.092-218.122-218.092zM499.866 656.855c9.318 7.977 25.672 5.304 30.956-6.083 10.721-26.552 21.238-53.176 31.887-79.759 0.195-0.901 1.034-1.208 1.864-1.208 26.655-1.823 53.279-3.994 79.944-5.908 7.629-0.154 15.217-4.362 18.668-11.305 4.291-7.793 2.847-18.606-4.147-24.381-21.504-17.674-42.793-35.574-64.215-53.299-0.604-0.512-1.198-1.044-1.608-1.72 6.062-26.358 12.841-52.593 19.19-78.909 4.803-13.199-6.451-28.754-20.582-27.72-4.895 0.061-9.155 2.734-13.025 5.386-21.023 13.271-42.035 26.563-63.078 39.823-1.782 1.096-3.482 2.478-5.489 3.123-23.849-14.346-47.329-29.368-71.096-43.837-6.543-3.901-15.237-3.84-21.658 0.276-6.769 4.024-10.926 12.329-9.339 20.183 6.84 28.129 14.551 56.125 21.094 84.306-19.323 16.63-38.932 32.922-58.337 49.439-4.393 3.564-9.165 7.291-11.069 12.841-4.669 11.151 2.714 25.682 14.93 27.423 29.071 2.458 58.348 3.492 87.357 6.164 10.025 23.972 19.681 48.128 29.604 72.161 1.802 4.803 3.942 9.8 8.151 13.005z" />
<glyph unicode="&#xe62f;" d="M511.99 699.361c-120.443 0-218.102-97.659-218.102-218.143 0-120.453 97.659-218.092 218.102-218.092 120.474 0 218.081 97.638 218.122 218.092 0 120.494-97.649 218.143-218.122 218.143zM659.026 507.73c-21.504-17.674-42.793-35.574-64.215-53.299-0.604-0.512-1.198-1.044-1.608-1.72 6.062-26.358 12.841-52.593 19.19-78.909 4.803-13.199-6.451-28.754-20.582-27.72-4.895 0.061-9.155 2.734-13.025 5.386-21.023 13.271-42.035 26.563-63.078 39.823-1.782 1.096-3.482 2.478-5.489 3.123-23.849-14.346-47.329-29.368-71.096-43.837-6.543-3.901-15.237-3.84-21.658 0.276-6.769 4.024-10.926 12.329-9.339 20.183 6.84 28.129 14.551 56.125 21.094 84.306-19.323 16.63-38.932 32.922-58.337 49.439-4.393 3.564-9.165 7.291-11.069 12.841-4.669 11.151 2.714 25.682 14.93 27.423 29.071 2.458 58.348 3.492 87.357 6.164 10.025 23.972 19.681 48.128 29.604 72.161 1.823 4.803 3.963 9.8 8.172 13.005 9.318 7.977 25.672 5.304 30.956-6.083 10.721-26.552 21.238-53.176 31.887-79.759 0.195-0.901 1.034-1.208 1.864-1.208 26.655-1.823 53.279-3.994 79.944-5.908 7.629-0.154 15.217-4.362 18.668-11.305 4.28-7.793 2.836-18.606-4.168-24.381zM512 960c-282.757 0-512-229.233-512-512 0-282.757 229.243-512 512-512s512 229.243 512 512c0 282.767-229.243 512-512 512zM691.784 300.626l-180.275-180.306-179.937 178.903c-99.574 99.584-98.867 260.833 0.717 360.417 99.584 99.574 260.485 100.383 360.059 0.809 99.564-99.594 99.021-260.229-0.563-359.823z" />
<glyph unicode="&#xe630;" d="M427.53 354.836v-62.659l-222.73 96.543v53.576l222.73 96.532v-63.099l-155.197-59.791 155.197-61.102zM565.248 540.16l-62.003-255.283c-2.058-8.407-3.86-15.063-5.417-19.927-1.546-4.874-3.912-8.694-7.076-11.387-3.174-2.744-7.793-4.096-13.844-4.096-15.053 0-22.589 6.513-22.589 19.476 0 3.4 1.485 11.878 4.434 25.457l61.778 255.283c3.246 13.578 6.339 22.876 9.288 27.894 2.959 5.018 8.714 7.526 17.285 7.526 7.383 0 13.015-1.772 16.927-5.315 3.912-3.543 5.868-8.417 5.868-14.612 0-4.577-1.556-12.913-4.649-25.016zM819.2 388.721l-222.73-96.983v62.659l155.648 61.102-155.648 60.232v62.218l222.73-96.092v-53.135zM962.56 898.56h-901.12c-33.925 0-61.44-27.515-61.44-61.44v-778.24c0-33.925 27.515-61.44 61.44-61.44h901.12c33.935 0 61.44 27.525 61.44 61.44v778.24c0 33.935-27.505 61.44-61.44 61.44zM808.96 857.6c22.579 0 40.96-18.371 40.96-40.96s-18.381-40.96-40.96-40.96-40.96 18.371-40.96 40.96 18.381 40.96 40.96 40.96zM696.32 857.6c22.579 0 40.96-18.371 40.96-40.96s-18.381-40.96-40.96-40.96-40.96 18.371-40.96 40.96 18.381 40.96 40.96 40.96zM962.56 58.88h-901.12v675.84h901.12v-675.84zM921.6 775.68c-22.579 0-40.96 18.371-40.96 40.96s18.381 40.96 40.96 40.96 40.96-18.371 40.96-40.96-18.381-40.96-40.96-40.96z" />
<glyph unicode="&#xe631;" d="M512-64c-282.317 0-512 229.683-512 512s229.683 512 512 512 512-229.683 512-512-229.683-512-512-512zM512 898.56c-248.443 0-450.56-202.117-450.56-450.56s202.117-450.56 450.56-450.56 450.56 202.117 450.56 450.56-202.117 450.56-450.56 450.56zM461.322 392.1v-37.591l-133.642 57.917v32.154l133.642 57.917v-37.857l-93.123-35.881 93.123-36.659zM543.949 503.296l-37.212-153.17c-1.229-5.048-2.314-9.042-3.236-11.96s-2.345-5.212-4.25-6.83c-1.905-1.649-4.68-2.458-8.305-2.458-9.032 0-13.558 3.912-13.558 11.684 0 2.038 0.891 7.127 2.662 15.278l37.069 153.17c1.946 8.141 3.799 13.722 5.571 16.732 1.782 3.011 5.233 4.516 10.373 4.516 4.434 0 7.813-1.065 10.158-3.195 2.345-2.13 3.523-5.059 3.523-8.765 0-2.734-0.942-7.741-2.796-15.002zM696.32 412.426l-133.642-58.194v37.601l93.389 36.659-93.389 36.137v37.335l133.642-57.651v-31.887zM782.336 718.336h-540.672c-20.357 0-36.864-16.507-36.864-36.864v-466.944c0-20.347 16.507-36.874 36.864-36.874h540.672c20.357 0 36.864 16.517 36.864 36.874v466.944c0 20.367-16.497 36.864-36.864 36.864zM690.176 693.76c13.537 0 24.566-11.018 24.566-24.576s-11.028-24.576-24.566-24.576c-13.548 0-24.576 11.018-24.576 24.576s11.028 24.576 24.576 24.576zM622.592 693.76c13.548 0 24.576-11.018 24.576-24.576s-11.028-24.576-24.576-24.576-24.576 11.018-24.576 24.576 11.028 24.576 24.576 24.576zM782.336 214.528h-540.672v405.504h540.672v-405.504zM757.76 644.608c-13.548 0-24.576 11.018-24.576 24.576s11.028 24.576 24.576 24.576 24.576-11.018 24.576-24.576-11.028-24.576-24.576-24.576z" />
<glyph unicode="&#xe632;" d="M802.816 669.184c0-13.573-11.003-24.576-24.576-24.576s-24.576 11.003-24.576 24.576c0 13.573 11.003 24.576 24.576 24.576 13.573 0 24.576-11.003 24.576-24.576zM266.24 212.48h532.48v409.6h-532.48v-409.6zM583.68 391.844l93.389 36.659-93.389 36.137v37.325l133.12-57.651v-31.887l-133.12-58.194v37.612zM500.531 355.84l37.069 153.17c1.946 8.141 3.799 13.722 5.571 16.732 1.782 3.011 5.233 4.516 10.373 4.516 4.434 0 7.813-1.065 10.158-3.195 2.345-2.13 3.523-5.059 3.523-8.765 0-2.744-0.942-7.741-2.785-15.012l-37.212-153.17c-1.229-5.048-2.314-9.042-3.236-11.96s-2.345-5.212-4.25-6.83c-1.905-1.649-4.68-2.458-8.305-2.458-9.032 0-13.558 3.912-13.558 11.684-0.010 2.048 0.891 7.137 2.652 15.288zM348.16 444.58l133.12 57.917v-37.857l-93.123-35.881 93.123-36.659v-37.591l-133.12 57.917v32.154zM512 960c-282.767 0-512-229.233-512-512s229.233-512 512-512 512 229.233 512 512-229.233 512-512 512zM839.68 208.394c0-20.367-16.497-36.874-36.864-36.874h-540.672c-20.357 0-36.864 16.507-36.864 36.874v468.972c0 20.367 16.507 36.874 36.864 36.874h540.672c20.357 0 36.864-16.507 36.864-36.874v-468.972zM667.648 669.184c0-13.573-11.003-24.576-24.576-24.576s-24.576 11.003-24.576 24.576c0 13.573 11.003 24.576 24.576 24.576 13.573 0 24.576-11.003 24.576-24.576zM710.656 644.608c13.537 0 24.566 11.018 24.566 24.576s-11.018 24.576-24.566 24.576c-13.548 0-24.576-11.018-24.576-24.576s11.028-24.576 24.576-24.576z" />
</font>
</defs>
</svg>
